# Blender 4.0.2
# www.blender.org
mtllib portal.mtl
o Cube
v -1.000000 0.021050 0.482167
v -1.000000 2.021050 0.482167
v -1.000000 0.021050 -0.482167
v -1.000000 2.021050 -0.482167
v 1.000000 0.021050 0.482167
v 1.000000 2.021050 0.482167
v 1.000000 0.021050 -0.482167
v 1.000000 2.021050 -0.482167
v -0.278343 0.021050 -0.482167
v -0.278343 2.021050 -0.482167
v -0.278343 0.021050 0.482167
v -0.278343 2.021050 0.482167
v 0.326035 2.021050 -0.482167
v 0.326035 0.021050 0.482167
v 0.326035 0.021050 -0.482167
v 0.326035 2.021050 0.482167
v -1.000000 1.180602 0.482167
v -1.000000 1.180602 -0.482167
v 1.000000 1.180602 -0.482167
v 1.000000 1.180602 0.482167
v -0.278343 1.180602 0.482167
v -0.278343 1.180602 -0.482167
v 0.326035 1.180602 0.482167
v 0.326035 1.180602 -0.482167
v 0.023846 0.021050 -0.482167
v 0.023846 2.021050 0.482167
v 0.023846 2.021050 -0.482167
v 0.023846 0.021050 0.482167
v 0.023846 1.180602 -0.482167
v 0.023846 1.180602 0.482167
v -0.278343 1.180602 0.276466
v -0.278343 0.021050 0.276466
v 0.023846 0.021050 0.276466
v 0.326035 0.021050 0.276466
v 0.326035 1.180602 0.276466
v 0.023846 1.180602 0.276466
v 0.023846 0.021050 -0.317032
v -0.278343 0.021050 -0.317032
v -0.278343 1.180602 -0.317032
v 0.326035 1.180602 -0.317032
v 0.326035 0.021050 -0.317032
v 0.023846 1.180602 -0.317032
v 0.023846 0.282582 0.482167
v 0.326035 0.282582 0.482167
v -0.278343 0.282582 0.482167
v 0.326035 0.282582 0.276466
v 0.023846 0.282582 0.276466
v -0.278343 0.282582 0.276466
v 0.023846 0.021050 0.895660
v 0.326035 0.021050 0.895660
v -0.278343 0.021050 0.895660
v 0.023846 0.032047 0.895660
v 0.326035 0.032047 0.895660
v -0.278343 0.032047 0.895660
v 0.023846 2.096009 0.482167
v -0.239026 2.096009 0.482167
v -0.239026 2.096009 -0.482167
v 0.023846 2.096009 -0.482167
v 0.286717 2.096009 -0.482167
v 0.286717 2.096009 0.482167
v -1.000000 0.278143 -0.482167
v 1.000000 0.278143 -0.482167
v 1.000000 0.278143 0.482167
v -0.278343 0.278143 0.482167
v -0.278343 0.278143 -0.482167
v 0.326035 0.278143 0.482167
v 0.326035 0.278143 -0.482167
v -1.000000 0.278143 0.482167
v -0.278343 0.278143 0.276466
v 0.326035 0.278143 0.276466
v 0.023846 0.278143 0.276466
v -0.278343 0.278143 -0.317032
v 0.326035 0.278143 -0.317032
v 0.023846 0.278143 -0.317032
vn -1.0000 -0.0000 -0.0000
vn -0.0000 -0.0000 -1.0000
vn 1.0000 -0.0000 -0.0000
vn -0.0000 -0.0000 1.0000
vn -0.0000 1.0000 -0.0000
vn -0.0000 -1.0000 -0.0000
vn -0.0000 0.8553 0.5182
vn 0.8856 0.4645 -0.0000
vn -0.8856 0.4645 -0.0000
vt 0.186023 0.600198
vt 0.193820 0.784852
vt 0.334501 0.704774
vt 0.335229 0.519033
vt 0.496605 0.584025
vt 0.497386 0.774109
vt 0.337114 0.705052
vt 0.338540 0.518464
vt 0.334911 0.517658
vt 0.494173 0.586300
vt 0.493469 0.773219
vt 0.335030 0.707513
vt 0.335547 0.520408
vt 0.320838 0.843023
vt 0.187324 0.786282
vt 0.335606 0.705626
vt 0.456870 0.758668
vt 0.494310 0.773494
vt 0.549582 0.796426
vt 0.554444 0.610201
vt 0.549971 0.797042
vt 0.497864 0.584455
vt 0.493469 0.773219
vt 0.494173 0.586300
vt 0.497386 0.774109
vt 0.497141 0.584886
vt 0.187952 0.785566
vt 0.321216 0.842507
vt 0.456649 0.758742
vt 0.335680 0.705404
vt 0.553722 0.609586
vt 0.610053 0.426196
vt 0.609574 0.572988
vt 0.555948 0.604363
vt 0.556905 0.456134
vt 0.337430 0.318109
vt 0.496834 0.584271
vt 0.495671 0.387081
vt 0.335727 0.318117
vt 0.494928 0.385591
vt 0.572471 0.507947
vt 0.580093 0.595609
vt 0.494928 0.385591
vt 0.336102 0.319498
vt 0.336391 0.317423
vt 0.177650 0.401921
vt 0.495983 0.387706
vt 0.494109 0.330905
vt 0.559410 0.359803
vt 0.000000 0.000000
vt 0.497864 0.584455
vt 0.549971 0.797041
vt 0.554444 0.610201
vt 0.494310 0.773494
vt 0.549582 0.796426
vt 0.553722 0.609586
vt 0.559588 0.414294
vt 0.554444 0.613892
vt 0.494372 0.388036
vt 0.495296 0.588578
vt 0.558028 0.610201
vt 0.639469 0.392704
vt 0.574173 0.363538
vt 0.715825 0.142161
vt 0.790179 0.173712
vt 0.610206 0.427874
vt 0.610206 0.572329
vt 0.556118 0.604934
vt 0.557554 0.455692
vt 0.610206 0.386722
vt 0.557963 0.413175
vt 0.575160 0.594147
vt 0.571632 0.527954
vt 0.558028 0.610201
vt 0.476840 0.576274
vt 0.475917 0.375732
vt 0.554444 0.613892
vt 0.610189 0.384377
vt 0.557178 0.413907
vt 0.563241 0.358153
vt 0.613633 0.380591
vt 0.577577 0.402942
vt 0.532637 0.380620
vt 0.525583 0.338754
vt 0.494066 0.356370
vt 0.495143 0.328412
vt 0.475654 0.318601
vt 0.561675 0.356112
vt 0.611244 0.196570
vt 0.630734 0.206381
vt 0.523270 0.340706
vt 0.661211 0.120646
vt 0.395360 0.886724
vt 0.325929 0.856261
vt 0.479197 0.768881
vt 0.548156 0.795809
vt 0.325587 0.856341
vt 0.395423 0.886624
vt 0.548152 0.795688
vt 0.479177 0.769416
vt 0.418218 0.776997
vt 0.321279 0.841141
vt 0.323790 0.852603
vt 0.421625 0.797069
vt 0.495143 0.328412
vt 0.475654 0.318601
vt 0.175265 0.345435
vt 0.335477 0.259498
vt 0.495806 0.331778
vt 0.337114 0.261032
vt 0.336260 0.262262
vt 0.336260 0.262262
vt 0.337114 0.261032
vt 0.495340 0.330905
s 0
usemtl Material
f 17/1/1 2/2/1 4/3/1 18/4/1
f 24/5/2 13/6/2 8/7/2 19/8/2
f 19/9/3 8/3/3 6/2/3 20/1/3
f 21/10/4 12/11/4 2/12/4 17/13/4
f 10/14/5 4/15/5 2/16/5 12/17/5
f 13/18/2 27/19/2 58/19/2 59/18/2
f 30/20/4 26/21/4 12/11/4 21/22/4
f 18/4/2 4/12/2 10/23/2 22/24/2
f 20/8/4 6/7/4 16/25/4 23/26/4
f 8/27/5 13/28/5 16/29/5 6/30/5
f 29/31/2 27/19/2 13/18/2 24/5/2
f 65/32/3 22/33/3 39/34/3 72/35/3
f 63/36/4 20/8/4 23/37/4 66/38/4
f 61/39/2 18/4/2 22/24/2 65/40/2
f 23/41/6 30/42/6 36/42/6 35/41/6
f 64/43/4 21/10/4 17/13/4 68/44/4
f 62/45/3 19/9/3 20/1/3 63/46/3
f 67/47/2 24/5/2 19/8/2 62/45/2
f 68/46/1 17/1/1 18/4/1 61/39/1
f 34/48/2 33/49/2 47/49/2 46/48/2
f 15/50/5 25/50/5 37/50/5 41/50/5
f 22/51/2 10/23/2 27/52/2 29/53/2
f 23/26/4 16/54/4 26/55/4 30/56/4
f 26/55/4 16/54/4 60/54/4 55/55/4
f 71/57/4 36/58/4 31/10/4 69/40/4
f 70/59/4 35/60/4 36/61/4 71/57/4
f 44/62/7 43/63/7 52/64/7 53/65/7
f 66/66/1 23/67/1 35/68/1 70/69/1
f 64/66/3 11/70/3 32/71/3 69/69/3
f 30/72/6 21/73/6 31/73/6 36/72/6
f 74/57/2 42/74/2 40/75/2 73/76/2
f 72/40/2 39/24/2 42/77/2 74/57/2
f 67/32/1 15/78/1 41/79/1 73/35/1
f 25/50/5 9/50/5 38/50/5 37/50/5
f 29/31/6 24/75/6 40/75/6 42/31/6
f 22/24/6 29/77/6 42/77/6 39/24/6
f 43/80/5 44/81/5 46/82/5 47/83/5
f 45/84/5 43/80/5 47/83/5 48/85/5
f 32/86/1 11/86/1 45/86/1 48/86/1
f 14/87/3 34/87/3 46/87/3 44/87/3
f 33/88/2 32/86/2 48/86/2 47/88/2
f 14/89/3 44/89/3 53/89/3 50/89/3
f 51/50/4 49/50/4 52/50/4 54/50/4
f 49/50/4 50/50/4 53/50/4 52/50/4
f 28/50/6 14/50/6 50/50/6 49/50/6
f 45/90/1 11/90/1 51/90/1 54/90/1
f 11/50/6 28/50/6 49/50/6 51/50/6
f 43/63/7 45/91/7 54/92/7 52/64/7
f 58/93/5 57/94/5 56/95/5 55/96/5
f 59/97/5 58/98/5 55/99/5 60/100/5
f 12/11/4 26/21/4 55/21/4 56/11/4
f 16/101/8 13/102/8 59/103/8 60/104/8
f 27/52/2 10/23/2 57/23/2 58/52/2
f 10/102/9 12/101/9 56/104/9 57/103/9
f 24/33/1 67/32/1 73/35/1 40/34/1
f 38/105/2 72/40/2 74/57/2 37/88/2
f 37/49/2 74/57/2 73/76/2 41/106/2
f 21/67/3 64/66/3 69/69/3 31/68/3
f 14/70/1 66/66/1 70/69/1 34/71/1
f 34/48/4 70/59/4 71/57/4 33/49/4
f 33/88/4 71/57/4 69/40/4 32/86/4
f 1/107/1 68/46/1 61/39/1 3/108/1
f 15/109/2 67/47/2 62/45/2 7/110/2
f 7/108/3 62/45/3 63/46/3 5/107/3
f 11/86/4 64/43/4 68/44/4 1/111/4
f 3/112/2 61/39/2 65/40/2 9/105/2
f 5/113/4 63/36/4 66/38/4 14/114/4
f 9/78/3 65/32/3 72/35/3 38/79/3
