# Blender 4.0.2
# www.blender.org
mtllib farm.mtl
o Cube
v 1.950426 -0.053825 4.510786
v 1.950426 0.663658 4.510786
v -1.925498 -0.053825 4.510786
v -1.925498 0.663658 4.510786
v 1.950426 -0.053825 -2.009369
v 1.950426 0.663658 -2.009369
v -1.925498 -0.053825 -2.009369
v -1.925498 0.663658 -2.009369
v 1.745964 0.141325 4.166836
v -1.721036 0.141325 4.166836
v -1.721036 0.141325 -1.665419
v 1.745964 0.141325 -1.665419
vn -0.0000 -0.0000 1.0000
vn -1.0000 -0.0000 -0.0000
vn -0.0000 -0.0000 -1.0000
vn 1.0000 -0.0000 -0.0000
vn -0.0000 -1.0000 -0.0000
vn 0.9312 0.3645 -0.0000
vn -0.0000 1.0000 -0.0000
vn -0.0000 0.5500 0.8352
vn -0.0000 0.5500 -0.8352
vn -0.9312 0.3645 -0.0000
vt 0.379729 0.586644
vt 0.375823 0.609676
vt 0.290566 0.659480
vt 0.286659 0.641332
vt 0.597484 0.281719
vt 0.596869 0.304979
vt 0.707655 0.378816
vt 0.715468 0.357316
vt 0.509316 0.337620
vt 0.513222 0.355769
vt 0.598479 0.305964
vt 0.602385 0.282933
vt 0.401883 0.421279
vt 0.513388 0.545206
vt 0.661324 0.513453
vt 0.511108 0.371831
vt 0.530184 0.485220
vt 0.470965 0.413276
vt 0.481349 0.411663
vt 0.530055 0.471532
vt 0.189000 0.478635
vt 0.097245 0.416517
vt 0.164929 0.374571
vt 0.255875 0.435245
vt 0.683596 0.365296
vt 0.581908 0.407159
vt 0.578112 0.389338
vt 0.668391 0.350054
vt 0.403550 0.438747
vt 0.511424 0.412564
vt 0.511383 0.397071
vt 0.422849 0.435749
vt 0.484355 0.417847
vt 0.550820 0.474713
vt 0.543621 0.463814
vt 0.484337 0.411116
s 0
usemtl Material
f 1/1/1 2/2/1 4/3/1 3/4/1
f 3/5/2 4/6/2 8/7/2 7/8/2
f 7/9/3 8/10/3 6/11/3 5/12/3
f 5/8/4 6/7/4 2/6/4 1/5/4
f 3/13/5 7/14/5 5/15/5 1/16/5
f 8/17/6 4/18/6 10/19/6 11/20/6
f 11/21/7 10/22/7 9/23/7 12/24/7
f 6/25/8 8/26/8 11/27/8 12/28/8
f 4/29/9 2/30/9 9/31/9 10/32/9
f 2/33/10 6/34/10 12/35/10 9/36/10
o Cube.001
v 0.060613 0.121877 -0.348909
v -0.131982 1.405589 -0.348909
v 0.156911 0.121877 -0.637802
v 0.156911 1.405589 -0.445206
v -0.131982 0.549781 -0.637802
v 0.060613 0.121877 -1.332337
v -0.131982 1.405589 -1.332337
v 0.156911 0.121877 -1.621230
v 0.156911 1.405589 -1.428634
v -0.131982 0.549781 -1.621230
v 0.060613 0.121877 0.611912
v -0.131982 1.405589 0.611912
v 0.156911 0.121877 0.323019
v 0.156911 1.405589 0.515614
v -0.131982 0.549781 0.323019
v 0.060613 0.121877 1.629251
v -0.131982 1.405589 1.629251
v 0.156911 0.121877 1.340358
v 0.156911 1.405589 1.532954
v -0.131982 0.549781 1.340358
v 0.060613 0.121877 2.669198
v -0.131982 1.405589 2.669198
v 0.156911 0.121877 2.380305
v 0.156911 1.405589 2.572901
v -0.131982 0.549781 2.380305
v 0.060613 0.121877 3.607411
v -0.131982 1.405589 3.607411
v 0.156911 0.121877 3.318518
v 0.156911 1.405589 3.511114
v -0.131982 0.549781 3.318518
v 0.964915 0.121877 -0.348909
v 0.772319 1.405589 -0.348909
v 1.061212 0.121877 -0.637802
v 1.061212 1.405589 -0.445206
v 0.772319 0.549781 -0.637802
v 0.964915 0.121877 -1.332337
v 0.772319 1.405589 -1.332337
v 1.061212 0.121877 -1.621230
v 1.061212 1.405589 -1.428635
v 0.772319 0.549781 -1.621230
v 0.964915 0.121877 0.611912
v 0.772319 1.405589 0.611912
v 1.061212 0.121877 0.323019
v 1.061212 1.405589 0.515614
v 0.772319 0.549781 0.323019
v 0.964915 0.121877 1.629251
v 0.772319 1.405589 1.629251
v 1.061212 0.121877 1.340358
v 1.061212 1.405589 1.532954
v 0.772319 0.549781 1.340358
v 0.964915 0.121877 2.669198
v 0.772319 1.405589 2.669198
v 1.061212 0.121877 2.380305
v 1.061212 1.405589 2.572901
v 0.772319 0.549781 2.380305
v 0.964915 0.121877 3.607411
v 0.772319 1.405589 3.607411
v 1.061212 0.121877 3.318518
v 1.061212 1.405589 3.511114
v 0.772319 0.549781 3.318518
v -1.035853 0.121877 -0.348909
v -1.228448 1.405589 -0.348909
v -0.939555 0.121877 -0.637802
v -0.939555 1.405589 -0.445206
v -1.228448 0.549781 -0.637802
v -1.035853 0.121877 -1.332337
v -1.228448 1.405589 -1.332337
v -0.939555 0.121877 -1.621230
v -0.939555 1.405589 -1.428634
v -1.228448 0.549781 -1.621230
v -1.035853 0.121877 0.611912
v -1.228448 1.405589 0.611912
v -0.939555 0.121877 0.323019
v -0.939555 1.405589 0.515614
v -1.228448 0.549781 0.323019
v -1.035853 0.121877 1.629251
v -1.228448 1.405589 1.629251
v -0.939555 0.121877 1.340358
v -0.939555 1.405589 1.532954
v -1.228448 0.549781 1.340358
v -1.035853 0.121877 2.669198
v -1.228448 1.405589 2.669198
v -0.939555 0.121877 2.380305
v -0.939555 1.405589 2.572901
v -1.228448 0.549781 2.380305
v -1.035853 0.121877 3.607411
v -1.228448 1.405589 3.607411
v -0.939555 0.121877 3.318518
v -0.939555 1.405589 3.511114
v -1.228448 0.549781 3.318518
vn -0.9053 -0.1358 0.4024
vn 0.9476 -0.0474 0.3159
vn -0.3012 0.3050 -0.9035
vn 0.3159 0.0474 0.9476
vn 0.2146 0.1449 -0.9659
vn -0.7989 -0.5393 -0.2663
vt 0.346784 0.371953
vt 0.351262 0.352867
vt 0.350252 0.335530
vt 0.356344 0.370041
vt 0.358053 0.338538
vt 0.365350 0.384925
vt 0.368990 0.365983
vt 0.368032 0.349230
vt 0.374672 0.383141
vt 0.375455 0.352044
vt 0.327335 0.358363
vt 0.332740 0.339164
vt 0.331673 0.321216
vt 0.337136 0.356312
vt 0.339879 0.324433
vt 0.305168 0.342875
vt 0.311692 0.323592
vt 0.310559 0.304948
vt 0.315237 0.340659
vt 0.319236 0.308412
vt 0.280634 0.325732
vt 0.288472 0.306413
vt 0.287265 0.287000
vt 0.290988 0.323326
vt 0.296473 0.290746
vt 0.256669 0.308988
vt 0.265868 0.289690
vt 0.264586 0.269527
vt 0.267291 0.306389
vt 0.274326 0.273558
vt 0.371316 0.361607
vt 0.374942 0.342432
vt 0.373933 0.324629
vt 0.381263 0.359589
vt 0.381762 0.327796
vt 0.389511 0.375281
vt 0.392321 0.356229
vt 0.391365 0.339042
vt 0.399199 0.373402
vt 0.398808 0.342000
vt 0.352219 0.347255
vt 0.356753 0.327991
vt 0.355687 0.309544
vt 0.362431 0.345086
vt 0.363929 0.312937
vt 0.330409 0.330864
vt 0.336044 0.311549
vt 0.334910 0.292366
vt 0.340915 0.328515
vt 0.343635 0.296026
vt 0.306212 0.312679
vt 0.313149 0.293372
vt 0.311939 0.273374
vt 0.317033 0.310123
vt 0.321211 0.277341
vt 0.282520 0.294873
vt 0.290812 0.275638
vt 0.289525 0.254842
vt 0.293639 0.292105
vt 0.299345 0.259121
vt 0.318727 0.383785
vt 0.324117 0.364829
vt 0.323107 0.348025
vt 0.327851 0.381990
vt 0.330867 0.350856
vt 0.337662 0.395976
vt 0.342197 0.377184
vt 0.341238 0.360929
vt 0.346572 0.394298
vt 0.348629 0.363583
vt 0.298934 0.371041
vt 0.305266 0.351947
vt 0.304201 0.334569
vt 0.308275 0.369120
vt 0.312354 0.337591
vt 0.276428 0.356552
vt 0.283891 0.337340
vt 0.282762 0.319311
vt 0.286009 0.354481
vt 0.291370 0.322556
vt 0.251585 0.340557
vt 0.260368 0.321265
vt 0.259166 0.302518
vt 0.261420 0.338315
vt 0.268289 0.306019
vt 0.227385 0.324976
vt 0.237527 0.305657
vt 0.236253 0.286210
vt 0.237457 0.322562
vt 0.245888 0.289968
s 0
usemtl Material
f 14/37/11 17/38/11 13/39/11
f 16/40/12 13/39/12 15/41/12
f 14/37/13 16/40/13 17/38/13
f 16/40/14 14/37/14 13/39/14
f 17/38/15 16/40/15 15/41/15
f 17/38/16 15/41/16 13/39/16
f 19/42/11 22/43/11 18/44/11
f 21/45/12 18/44/12 20/46/12
f 19/42/13 21/45/13 22/43/13
f 21/45/14 19/42/14 18/44/14
f 22/43/15 21/45/15 20/46/15
f 22/43/16 20/46/16 18/44/16
f 24/47/11 27/48/11 23/49/11
f 26/50/12 23/49/12 25/51/12
f 24/47/13 26/50/13 27/48/13
f 26/50/14 24/47/14 23/49/14
f 27/48/15 26/50/15 25/51/15
f 27/48/16 25/51/16 23/49/16
f 29/52/11 32/53/11 28/54/11
f 31/55/12 28/54/12 30/56/12
f 29/52/13 31/55/13 32/53/13
f 31/55/14 29/52/14 28/54/14
f 32/53/15 31/55/15 30/56/15
f 32/53/16 30/56/16 28/54/16
f 34/57/11 37/58/11 33/59/11
f 36/60/12 33/59/12 35/61/12
f 34/57/13 36/60/13 37/58/13
f 36/60/14 34/57/14 33/59/14
f 37/58/15 36/60/15 35/61/15
f 37/58/16 35/61/16 33/59/16
f 39/62/11 42/63/11 38/64/11
f 41/65/12 38/64/12 40/66/12
f 39/62/13 41/65/13 42/63/13
f 41/65/14 39/62/14 38/64/14
f 42/63/15 41/65/15 40/66/15
f 42/63/16 40/66/16 38/64/16
f 44/67/11 47/68/11 43/69/11
f 46/70/12 43/69/12 45/71/12
f 44/67/13 46/70/13 47/68/13
f 46/70/14 44/67/14 43/69/14
f 47/68/15 46/70/15 45/71/15
f 47/68/16 45/71/16 43/69/16
f 49/72/11 52/73/11 48/74/11
f 51/75/12 48/74/12 50/76/12
f 49/72/13 51/75/13 52/73/13
f 51/75/14 49/72/14 48/74/14
f 52/73/15 51/75/15 50/76/15
f 52/73/16 50/76/16 48/74/16
f 54/77/11 57/78/11 53/79/11
f 56/80/12 53/79/12 55/81/12
f 54/77/13 56/80/13 57/78/13
f 56/80/14 54/77/14 53/79/14
f 57/78/15 56/80/15 55/81/15
f 57/78/16 55/81/16 53/79/16
f 59/82/11 62/83/11 58/84/11
f 61/85/12 58/84/12 60/86/12
f 59/82/13 61/85/13 62/83/13
f 61/85/14 59/82/14 58/84/14
f 62/83/15 61/85/15 60/86/15
f 62/83/16 60/86/16 58/84/16
f 64/87/11 67/88/11 63/89/11
f 66/90/12 63/89/12 65/91/12
f 64/87/13 66/90/13 67/88/13
f 66/90/14 64/87/14 63/89/14
f 67/88/15 66/90/15 65/91/15
f 67/88/16 65/91/16 63/89/16
f 69/92/11 72/93/11 68/94/11
f 71/95/12 68/94/12 70/96/12
f 69/92/13 71/95/13 72/93/13
f 71/95/14 69/92/14 68/94/14
f 72/93/15 71/95/15 70/96/15
f 72/93/16 70/96/16 68/94/16
f 74/97/11 77/98/11 73/99/11
f 76/100/12 73/99/12 75/101/12
f 74/97/13 76/100/13 77/98/13
f 76/100/14 74/97/14 73/99/14
f 77/98/15 76/100/15 75/101/15
f 77/98/16 75/101/16 73/99/16
f 79/102/11 82/103/11 78/104/11
f 81/105/12 78/104/12 80/106/12
f 79/102/13 81/105/13 82/103/13
f 81/105/14 79/102/14 78/104/14
f 82/103/15 81/105/15 80/106/15
f 82/103/16 80/106/16 78/104/16
f 84/107/11 87/108/11 83/109/11
f 86/110/12 83/109/12 85/111/12
f 84/107/13 86/110/13 87/108/13
f 86/110/14 84/107/14 83/109/14
f 87/108/15 86/110/15 85/111/15
f 87/108/16 85/111/16 83/109/16
f 89/112/11 92/113/11 88/114/11
f 91/115/12 88/114/12 90/116/12
f 89/112/13 91/115/13 92/113/13
f 91/115/14 89/112/14 88/114/14
f 92/113/15 91/115/15 90/116/15
f 92/113/16 90/116/16 88/114/16
f 94/117/11 97/118/11 93/119/11
f 96/120/12 93/119/12 95/121/12
f 94/117/13 96/120/13 97/118/13
f 96/120/14 94/117/14 93/119/14
f 97/118/15 96/120/15 95/121/15
f 97/118/16 95/121/16 93/119/16
f 99/122/11 102/123/11 98/124/11
f 101/125/12 98/124/12 100/126/12
f 99/122/13 101/125/13 102/123/13
f 101/125/14 99/122/14 98/124/14
f 102/123/15 101/125/15 100/126/15
f 102/123/16 100/126/16 98/124/16
