# Blender 4.0.2
# www.blender.org
mtllib eagleHouse.mtl
o Cube
v -8.688941 1.543754 8.688941
v -8.688941 2.468840 8.688941
v -8.688941 1.543754 -8.688941
v -8.688941 2.468840 -8.688941
v 8.688941 1.543754 8.688941
v 8.688941 2.468840 8.688941
v 8.688941 1.543754 -8.688941
v 8.688941 2.468840 -8.688941
v -7.227612 2.468840 6.278076
v -7.227612 2.468840 -8.177148
v 7.227612 2.468840 -8.177148
v 7.227612 2.468840 6.278076
v -8.446772 2.468840 5.037826
v -8.446772 2.468840 -6.936898
v 8.414072 2.468840 -6.936898
v 8.414072 2.468840 5.037826
v -8.446772 6.159304 5.037826
v -8.446772 6.159304 -6.936898
v 8.414072 6.159304 -6.936898
v 8.414072 6.159304 5.037826
v -7.838251 6.159304 2.065790
v -7.838251 6.159304 -6.128883
v 7.936887 6.159304 -6.128883
v 7.936887 6.159304 2.065790
v -7.838251 8.406704 2.065790
v -7.838251 8.406704 -6.128883
v 7.936887 8.406704 -6.128883
v 7.936887 8.406704 2.065790
v -2.108558 8.406704 1.159022
v -2.108558 8.406704 -3.058094
v 2.108558 8.406704 -3.058094
v 2.108558 8.406704 1.159022
v -2.108558 11.017210 1.159022
v -2.108558 11.017210 -3.058094
v 2.108558 11.017210 -3.058094
v 2.108558 11.017210 1.159022
v -1.378215 11.242263 1.034510
v -1.378215 11.242263 -2.327751
v 1.378215 11.242263 -2.327751
v 1.378215 11.242263 1.034510
v -1.378215 11.846249 1.034510
v -1.378215 11.846249 -2.327751
v 1.378215 11.846249 -2.327751
v 1.378215 11.846249 1.034510
v 0.022745 1.543754 -8.688941
v 0.022745 2.468840 -8.688941
v 0.022745 1.543754 8.688941
v 0.022745 2.468840 8.688941
v 0.018920 2.468840 -8.177148
v 0.018920 2.468840 6.278076
v 0.005718 2.468840 -6.936898
v 0.005718 2.468840 5.037826
v 0.005718 6.159304 -6.936898
v 0.013558 6.159304 -6.128883
v 0.013558 6.159304 2.065790
v 0.013558 8.406704 -6.128883
v 0.013558 8.406704 2.065790
v 0.005520 8.406704 -3.058094
v 0.005520 8.406704 1.159022
v 0.005520 11.017210 -3.058094
v 0.005520 11.017210 1.159022
v 0.003608 11.242263 -2.327751
v 0.003608 11.242263 1.034510
v 0.003608 11.846249 -2.327751
v 0.003608 11.846249 1.034510
v 1.849237 6.159304 5.037826
v 1.875028 2.468840 6.278076
v 1.841626 6.159304 2.065790
v 1.906703 2.468840 5.037826
v 1.836388 8.406704 2.065790
v -1.929234 6.159304 5.037826
v -1.959346 2.468840 5.037826
v -2.024759 6.159304 2.065790
vn -1.0000 -0.0000 -0.0000
vn -0.0000 -0.0000 -1.0000
vn 1.0000 -0.0000 -0.0000
vn -0.0000 -0.0000 1.0000
vn -0.0000 -1.0000 -0.0000
vn -0.0000 1.0000 -0.0000
vn 0.2945 0.9557 -0.0000
vn -0.2945 0.9557 -0.0000
vn -0.0000 0.4841 0.8750
vn -0.0000 0.9557 -0.2945
vt 0.605469 0.033203
vt 0.601562 0.078125
vt 0.985352 0.305664
vt 0.989258 0.252930
vt 0.342761 0.146563
vt 0.348343 0.173754
vt 0.587882 0.088560
vt 0.579334 0.059601
vt 0.314140 0.156617
vt 0.315417 0.208796
vt 0.026718 0.325825
vt 0.023678 0.277940
vt 0.674503 0.414747
vt 0.911076 0.327785
vt 0.587461 0.053505
vt 0.301437 0.206337
vt 0.449530 0.188973
vt 0.171088 0.308590
vt 0.190663 0.248845
vt 0.429264 0.163960
vt 0.597304 0.173226
vt 0.864555 0.368952
vt 0.806946 0.371350
vt 0.579610 0.218241
vt 0.395791 0.176300
vt 0.541712 0.134019
vt 0.541080 0.152928
vt 0.422042 0.197498
vt 0.193559 0.263400
vt 0.517232 0.131633
vt 0.544007 0.152370
vt 0.318840 0.248482
vt 0.234973 0.284136
vt 0.326842 0.212082
vt 0.643873 0.068504
vt 0.591109 0.106501
vt 0.333130 0.223127
vt 0.976548 0.314262
vt 0.663147 0.123931
vt 0.660529 0.368250
vt 0.949099 0.543481
vt 0.463921 0.512563
vt 0.127101 0.399656
vt 0.196538 0.396765
vt 0.471184 0.494084
vt 0.369132 0.249312
vt 0.440655 0.218745
vt 0.433318 0.266118
vt 0.370204 0.293237
vt 0.636135 0.118264
vt 0.347563 0.248188
vt 0.639505 0.432557
vt 0.484040 0.605489
vt 0.661346 0.549806
vt 0.655570 0.120579
vt 0.968166 0.312443
vt 0.950890 0.550221
vt 0.663358 0.363235
vt 0.696187 0.411354
vt 0.846090 0.501434
vt 0.845861 0.588235
vt 0.695017 0.504353
vt 0.489562 0.594871
vt 0.644202 0.545699
vt 0.661572 0.369674
vt 0.949909 0.548166
vt 0.841771 0.591705
vt 0.545684 0.422247
vt 0.343444 0.563184
vt 0.275745 0.591863
vt 0.272487 0.571456
vt 0.331050 0.546647
vt 0.478755 0.483746
vt 0.494456 0.492624
vt 0.481897 0.504774
vt 0.470469 0.487936
vt 0.850358 0.502616
vt 0.698443 0.414266
vt 0.696643 0.505739
vt 0.851314 0.586610
vt 0.420098 0.461861
vt 0.460192 0.446274
vt 0.471433 0.542136
vt 0.429870 0.556436
vt 0.498269 0.668789
vt 0.658143 0.623355
vt 0.588773 0.572258
vt 0.694200 0.632211
vt 0.686276 0.689388
vt 0.588400 0.631211
vt 0.463625 0.506366
vt 0.433586 0.485023
vt 0.467060 0.466289
vt 0.528814 0.502541
vt 0.437821 0.498847
vt 0.453257 0.493536
vt 0.504917 0.475761
vt 0.489064 0.500405
vt 0.462878 0.508836
vt 0.485758 0.494003
vt 0.445865 0.505340
vt 0.452152 0.495567
vt 0.468953 0.490558
vt 0.589175 0.628886
vt 0.687051 0.688613
vt 0.662968 0.688290
vt 0.588059 0.647308
vt 0.695537 0.635823
vt 0.588455 0.573600
vt 0.588628 0.631833
vt 0.687322 0.688457
vt 0.511289 0.485671
vt 0.585673 0.452117
vt 0.589175 0.631211
vt 0.527862 0.655885
vt 0.513645 0.558768
vt 0.446316 0.595442
vt 0.445845 0.697024
vt 0.527758 0.656279
vt 0.533192 0.671565
vt 0.582634 0.646533
vt 0.579533 0.688264
vt 0.536563 0.708977
vt 0.685591 0.689700
vt 0.588564 0.629520
vt 0.585379 0.644721
vt 0.661406 0.687507
vt 0.523212 0.661310
vt 0.589175 0.626560
vt 0.604337 0.635682
vt 0.536292 0.668465
vt 0.511157 0.665068
vt 0.446334 0.697512
vt 0.476836 0.700202
vt 0.529158 0.673832
vt 0.594867 0.742807
vt 0.542510 0.759556
vt 0.487913 0.730529
vt 0.538113 0.708202
vt 0.591170 0.717778
vt 0.544707 0.729499
vt 0.547936 0.754131
vt 0.576433 0.694589
vt 0.637390 0.706118
vt 0.641553 0.731542
vt 0.580308 0.721594
vt 0.480398 0.719917
vt 0.483263 0.746031
vt 0.636127 0.724566
vt 0.581859 0.691365
vt 0.588797 0.629299
vt 0.584167 0.645571
vt 0.447560 0.695391
vt 0.464896 0.705965
vt 0.478073 0.695113
vt 0.490238 0.732079
vt 0.589899 0.530987
vt 0.588797 0.630764
vt 0.432660 0.518568
vt 0.510514 0.484896
vt 0.527087 0.658985
vt 0.447560 0.696166
vt 0.525443 0.482725
vt 0.485665 0.485575
vt 0.424956 0.503958
vt 0.501488 0.477626
vt 0.529919 0.488960
vt 0.500050 0.498577
vt 0.798034 0.496783
vt 0.817183 0.578159
vt 0.274707 0.621083
vt 0.417230 0.559569
vt 0.446465 0.547310
vt 0.448425 0.628702
vt 0.275605 0.703395
vt 0.837725 0.494414
vt 0.660453 0.117827
vt 0.474218 0.196786
vt 0.492439 0.441718
vt 0.662855 0.368250
vt 0.266841 0.575605
vt 0.335365 0.545185
vt 0.355841 0.556571
vt 0.296723 0.589753
vt 0.083995 0.335754
vt 0.069837 0.373228
vt 0.051470 0.326089
vt 0.337879 0.204535
vt 0.335546 0.248411
vt 0.268329 0.271307
vt 0.046421 0.346897
vt 0.022718 0.349816
vt 0.036593 0.331592
vt 0.328107 0.206567
vt 0.318445 0.246733
vt 0.066366 0.351556
vt 0.436687 0.502166
vt 0.013912 0.359971
vt 0.603086 0.035927
vt 0.602609 0.092379
vt 0.104945 0.233982
vt 0.107548 0.259395
vt 0.616199 0.543447
vt 0.613330 0.452580
vt 0.697407 0.415336
vt 0.697011 0.506009
vt 0.445413 0.507052
vt 0.431095 0.494510
vt 0.490517 0.465752
vt 0.512081 0.479822
vt 0.531065 0.423993
vt 0.496672 0.191951
vt 0.661770 0.119029
vt 0.662583 0.365560
vt 0.234193 0.283104
vt 0.191084 0.262412
vt 0.468036 0.149210
vt 0.504192 0.169939
s 0
usemtl Material
f 1/1/1 2/2/1 4/3/1 3/4/1
f 45/5/2 46/6/2 8/7/2 7/8/2
f 7/4/3 8/3/3 6/2/3 5/1/3
f 47/9/4 48/10/4 2/11/4 1/12/4
f 45/13/5 7/14/5 5/15/5 47/16/5
f 6/17/6 8/18/6 11/19/6 12/20/6
f 12/21/5 11/22/5 15/23/5 16/24/5
f 4/25/6 2/26/6 9/27/6 10/28/6
f 48/29/6 6/30/6 12/31/6 67/32/6 50/33/6
f 46/34/6 4/35/6 10/36/6 49/37/6
f 14/38/1 13/39/1 17/40/1 18/41/1
f 10/42/5 9/43/5 13/44/5 14/45/5
f 50/46/6 67/47/6 69/48/6 52/49/6
f 49/37/6 10/36/6 14/50/6 51/51/6
f 51/52/2 14/45/2 18/53/2 53/54/2
f 16/55/3 15/56/3 19/57/3 20/58/3
f 24/59/3 23/60/3 27/61/3 28/62/3
f 53/54/6 18/53/6 22/63/6 54/64/6
f 20/65/6 19/66/6 23/67/6 24/68/6
f 18/69/6 17/70/6 21/71/6 22/72/6
f 28/73/6 27/74/6 31/75/6 32/76/6
f 22/77/1 21/78/1 25/79/1 26/80/1
f 55/81/4 68/82/4 70/83/4 57/84/4
f 54/64/2 22/63/2 26/85/2 56/86/2
f 32/87/3 31/88/3 35/89/3 36/90/3
f 26/91/6 25/92/6 29/93/6 30/94/6
f 57/95/6 70/96/6 28/97/6 32/98/6 59/99/6
f 56/100/6 26/101/6 30/102/6 58/103/6
f 36/104/7 35/105/7 39/106/7 40/107/7
f 30/108/1 29/109/1 33/110/1 34/111/1
f 59/112/4 32/113/4 36/114/4 61/115/4
f 58/116/2 30/117/2 34/118/2 60/119/2
f 63/120/4 40/121/4 44/122/4 65/123/4
f 34/124/8 33/125/8 37/126/8 38/127/8
f 61/128/9 36/129/9 40/130/9 63/131/9
f 60/132/10 34/133/10 38/134/10 62/135/10
f 64/136/6 42/137/6 41/138/6 65/139/6
f 62/140/2 38/141/2 42/142/2 64/136/2
f 40/143/3 39/144/3 43/145/3 44/146/3
f 38/141/1 37/147/1 41/148/1 42/142/1
f 39/144/2 62/140/2 64/136/2 43/145/2
f 43/149/6 64/136/6 65/139/6 44/150/6
f 35/151/10 60/132/10 62/135/10 39/152/10
f 33/153/9 61/128/9 63/131/9 37/154/9
f 37/155/4 63/120/4 65/123/4 41/156/4
f 31/157/2 58/116/2 60/119/2 35/158/2
f 29/159/4 59/160/4 61/161/4 33/162/4
f 27/163/6 56/100/6 58/103/6 31/164/6
f 25/165/6 57/166/6 59/167/6 29/168/6
f 23/169/2 54/64/2 56/86/2 27/170/2
f 21/171/4 73/172/4 55/173/4 57/174/4 25/175/4
f 19/176/6 53/54/6 54/64/6 23/169/6
f 15/23/2 51/52/2 53/54/2 19/176/2
f 13/177/4 72/178/4 71/179/4 17/180/4
f 17/181/6 71/182/6 73/183/6 21/184/6
f 11/185/6 49/37/6 51/51/6 15/186/6
f 9/187/6 50/188/6 52/189/6 72/190/6 13/191/6
f 8/192/6 46/34/6 49/37/6 11/185/6
f 2/193/6 48/194/6 50/195/6 9/196/6
f 3/197/5 45/13/5 47/16/5 1/198/5
f 5/199/4 6/200/4 48/10/4 47/9/4
f 3/201/2 4/202/2 46/6/2 45/5/2
f 70/203/4 68/204/4 24/205/4 28/206/4
f 68/207/6 66/208/6 20/209/6 24/210/6
f 66/211/4 69/212/4 16/213/4 20/214/4
f 69/215/6 67/216/6 12/217/6 16/218/6
o Cube.001
v -9.976624 8.123586 -3.204498
v -9.976624 11.910532 -3.204498
v -9.976624 8.123586 -4.109804
v -9.976624 11.910532 -4.109804
v 9.897989 8.123586 -3.204498
v 9.897989 11.910532 -3.204498
v 9.897989 8.123586 -4.109804
v 9.897989 11.910532 -4.109804
v -0.039317 8.123586 -4.109804
v -0.039317 11.910532 -4.109804
v -0.039317 8.123586 -3.204498
v -0.039317 11.910532 -3.204498
vn -1.0000 -0.0000 -0.0000
vn -0.0000 -0.0000 -1.0000
vn 1.0000 -0.0000 -0.0000
vn -0.0000 -0.0000 1.0000
vn -0.0000 -1.0000 -0.0000
vn -0.0000 1.0000 -0.0000
vt 0.726402 0.738006
vt 0.704967 0.679191
vt 0.763782 0.657756
vt 0.785217 0.716571
vt 0.375000 0.375000
vt 0.625000 0.375000
vt 0.625000 0.500000
vt 0.375000 0.500000
vt 0.844032 0.695136
vt 0.822597 0.636321
vt 0.881411 0.614886
vt 0.902846 0.673701
vt 0.554319 0.753783
vt 0.551858 0.865464
vt 0.351974 0.945439
vt 0.351974 0.846062
vt 0.250000 0.500000
vt 0.375000 0.750000
vt 0.250000 0.750000
vt 0.574594 0.886098
vt 0.419004 0.942696
vt 0.356254 0.944616
vt 0.552447 0.868331
vt 1.005792 0.665858
vt 0.723472 0.822118
vt 0.700094 0.805581
vt 0.989797 0.649322
vt 0.125000 0.500000
vt 0.125000 0.750000
vt 0.971983 0.580297
vt 0.991669 0.666140
vt 0.703196 0.803944
vt 0.698275 0.679959
vt 0.375000 0.250000
vt 0.625000 0.250000
s 0
usemtl Material
f 74/219/11 75/220/11 77/221/11 76/222/11
f 82/223/12 83/224/12 81/225/12 80/226/12
f 80/227/13 81/228/13 79/229/13 78/230/13
f 84/231/14 85/232/14 75/233/14 74/234/14
f 82/235/15 80/226/15 78/236/15 84/237/15
f 83/238/16 77/239/16 75/240/16 85/241/16
f 81/242/16 83/243/16 85/244/16 79/245/16
f 76/246/15 82/235/15 84/237/15 74/247/15
f 78/248/14 79/249/14 85/250/14 84/251/14
f 76/252/12 77/253/12 83/224/12 82/223/12
o Cube.002
v -1.922082 1.908434 8.576039
v -1.922082 2.445229 8.576039
v -1.922082 2.534834 1.985825
v -1.922082 8.440788 1.985825
v 1.817449 1.908434 8.576039
v 1.817449 2.445229 8.576039
v 1.817449 2.534834 1.985825
v 1.817449 8.440788 1.985825
vn -1.0000 -0.0000 -0.0000
vn -0.0000 -0.0000 -1.0000
vn 1.0000 -0.0000 -0.0000
vn -0.0000 -0.0000 1.0000
vn -0.0000 -0.9955 -0.0946
vn -0.0000 0.7397 0.6729
vt 0.411430 0.299963
vt 0.409523 0.281361
vt 0.498270 0.331821
vt 0.490042 0.443171
vt 0.375000 0.250000
vt 0.625000 0.250000
vt 0.625000 0.500000
vt 0.375000 0.500000
vt 0.403914 0.278530
vt 0.497654 0.323439
vt 0.492188 0.439453
vt 0.485352 0.440430
vt 0.375000 0.750000
vt 0.625000 0.750000
vt 0.625000 1.000000
vt 0.375000 1.000000
vt 0.125000 0.500000
vt 0.125000 0.750000
vt 0.271878 0.271147
vt 0.376691 0.220701
vt 0.494809 0.447324
vt 0.389995 0.494079
s 0
usemtl Material
f 86/254/17 87/255/17 89/256/17 88/257/17
f 88/258/18 89/259/18 93/260/18 92/261/18
f 92/262/19 93/263/19 91/264/19 90/265/19
f 90/266/20 91/267/20 87/268/20 86/269/20
f 88/270/21 92/261/21 90/266/21 86/271/21
f 93/272/22 89/273/22 87/274/22 91/275/22
