# Blender 4.0.2
# www.blender.org
mtllib tower.mtl
o Cube
v -3.629438 3.694169 2.777677
v -4.130366 0.052713 3.161047
v -3.629438 3.694169 -2.777677
v -4.130366 0.052713 -3.161047
v 3.629438 3.694169 2.777677
v 4.130366 0.052713 3.161047
v 3.629438 3.694169 -2.777677
v 4.130366 0.052713 -3.161047
v -2.815583 3.694169 2.154818
v -2.815583 3.694169 -2.154818
v 2.815583 3.694169 2.154818
v 2.815583 3.694169 -2.154818
v -2.484386 6.786620 1.901347
v -2.484386 6.786620 -1.901347
v 2.484386 6.786620 1.901347
v 2.484386 6.786620 -1.901347
v -1.644100 6.786620 1.258261
v -1.644100 6.786620 -1.258261
v 1.644100 6.786620 1.258261
v 1.644100 6.786620 -1.258261
v -1.644100 8.590383 1.258261
v -1.644100 8.590383 -1.258261
v 1.644100 8.590383 1.258261
v 1.644100 8.590383 -1.258261
v -1.049810 8.590383 0.803439
v -1.049810 8.590383 -0.803439
v 1.049810 8.590383 0.803439
v 1.049810 8.590383 -0.803439
v -1.049810 10.628144 0.803439
v -1.049810 10.628144 -0.803439
v 1.049810 10.628144 0.803439
v 1.049810 10.628144 -0.803439
vn -0.9907 0.1363 -0.0000
vn -0.0000 0.1047 -0.9945
vn 0.9907 0.1363 -0.0000
vn -0.0000 0.1047 0.9945
vn -0.0000 1.0000 -0.0000
vn -0.0000 -1.0000 -0.0000
vn -0.0000 0.0817 -0.9967
vn 0.9943 0.1065 -0.0000
vn -0.9943 0.1065 -0.0000
vn -0.0000 0.0817 0.9967
vn -0.0000 -0.0000 1.0000
vn -0.0000 -0.0000 -1.0000
vn 1.0000 -0.0000 -0.0000
vn -1.0000 -0.0000 -0.0000
vt 0.561891 0.301678
vt 0.558883 0.123397
vt 0.837880 0.246679
vt 0.797800 0.407395
vt 0.798548 0.405967
vt 0.837880 0.245703
vt 0.561092 0.125824
vt 0.562240 0.302004
vt 0.796615 0.406496
vt 0.838436 0.246918
vt 0.560700 0.123188
vt 0.561988 0.303209
vt 0.232887 0.405748
vt 0.188630 0.241352
vt 0.564115 0.124421
vt 0.562670 0.299833
vt 0.562670 0.302763
vt 0.797572 0.408897
vt 0.771406 0.407947
vt 0.562005 0.315017
vt 0.466366 0.427582
vt 0.712880 0.330664
vt 0.603177 0.144928
vt 0.316559 0.307758
vt 0.773474 0.407045
vt 0.561513 0.313594
vt 0.558385 0.550713
vt 0.741042 0.629623
vt 0.771224 0.407473
vt 0.561228 0.313858
vt 0.561483 0.301290
vt 0.796565 0.407014
vt 0.447730 0.339341
vt 0.562670 0.301786
vt 0.471051 0.342384
vt 0.773109 0.408945
vt 0.565396 0.315363
vt 0.584017 0.312853
vt 0.796404 0.407778
vt 0.703275 0.630965
vt 0.555256 0.562581
vt 0.560265 0.551600
vt 0.740846 0.631651
vt 0.773392 0.404901
vt 0.561829 0.312918
vt 0.557598 0.550881
vt 0.741374 0.629713
vt 0.561273 0.312509
vt 0.772004 0.405468
vt 0.740863 0.629677
vt 0.557795 0.550799
vt 0.272072 0.405813
vt 0.562504 0.313740
vt 0.562102 0.480666
vt 0.296140 0.563801
vt 0.358117 0.626795
vt 0.554408 0.562109
vt 0.555005 0.664718
vt 0.362845 0.726794
vt 0.558038 0.550637
vt 0.740223 0.631068
vt 0.701010 0.625529
vt 0.554897 0.562109
vt 0.554094 0.561394
vt 0.357338 0.626072
vt 0.315338 0.630434
vt 0.559751 0.551382
vt 0.550373 0.561742
vt 0.370787 0.619720
vt 0.381811 0.603909
vt 0.502383 0.563718
vt 0.532552 0.700437
vt 0.406113 0.741631
vt 0.414733 0.731260
vt 0.496375 0.704129
vt 0.611654 0.556681
vt 0.488405 0.587706
vt 0.486109 0.662122
vt 0.616758 0.637334
vt 0.701556 0.630336
vt 0.555569 0.564087
vt 0.554780 0.684774
vt 0.704687 0.751259
vt 0.554579 0.563833
vt 0.700790 0.631091
vt 0.704344 0.750499
vt 0.554602 0.685037
vt 0.687039 0.758732
vt 0.555187 0.697369
vt 0.553718 0.825508
vt 0.686621 0.881776
vt 0.627177 0.727231
vt 0.553230 0.697175
vt 0.590841 0.698144
vt 0.637045 0.718040
vt 0.572937 0.680705
vt 0.638533 0.714856
vt 0.602182 0.715836
vt 0.558975 0.695155
vt 0.433943 0.720372
vt 0.471553 0.719358
vt 0.583403 0.920811
vt 0.520278 0.936634
vt 0.518955 0.870959
vt 0.576004 0.848418
vt 0.554461 0.696966
vt 0.687029 0.758112
vt 0.686765 0.882247
vt 0.553816 0.825495
vt 0.380789 0.772553
vt 0.553850 0.713458
vt 0.555366 0.827046
vt 0.374670 0.878215
vt 0.553952 0.698533
vt 0.379705 0.755054
vt 0.384732 0.880978
vt 0.554120 0.825713
s 0
usemtl Material
f 1/1/1 3/4/1 4/3/1 2/2/1
f 3/5/2 7/8/2 8/7/2 4/6/2
f 7/9/3 5/12/3 6/11/3 8/10/3
f 5/13/4 1/16/4 2/15/4 6/14/4
f 1/17/5 9/20/5 10/19/5 3/18/5
f 8/21/6 6/24/6 2/23/6 4/22/6
f 10/25/7 14/28/7 16/27/7 12/26/7
f 7/29/5 12/32/5 11/31/5 5/30/5
f 5/33/5 11/35/5 9/20/5 1/34/5
f 3/36/5 10/39/5 12/38/5 7/37/5
f 16/40/5 20/43/5 19/42/5 15/41/5
f 12/44/8 16/47/8 15/46/8 11/45/8
f 9/48/9 13/51/9 14/50/9 10/49/9
f 11/52/10 15/55/10 13/54/10 9/53/10
f 19/56/11 23/59/11 21/58/11 17/57/11
f 13/60/5 17/63/5 18/62/5 14/61/5
f 15/64/5 19/67/5 17/66/5 13/65/5
f 14/68/5 18/71/5 20/70/5 16/69/5
f 22/72/5 26/75/5 28/74/5 24/73/5
f 18/76/12 22/79/12 24/78/12 20/77/12
f 20/80/13 24/83/13 23/82/13 19/81/13
f 17/84/14 21/87/14 22/86/14 18/85/14
f 28/88/13 32/91/13 31/90/13 27/89/13
f 24/92/5 28/95/5 27/94/5 23/93/5
f 21/96/5 25/99/5 26/98/5 22/97/5
f 23/100/5 27/101/5 25/99/5 21/96/5
f 30/102/5 29/105/5 31/104/5 32/103/5
f 25/106/14 29/109/14 30/108/14 26/107/14
f 27/110/11 31/113/11 29/112/11 25/111/11
f 26/114/12 30/117/12 32/116/12 28/115/12
o Cube.001
v -1.000000 0.091546 5.186601
v -1.000000 0.111753 5.186601
v -1.000000 0.091546 1.820779
v -1.000000 6.709096 1.820779
v 1.000000 0.091546 5.186601
v 1.000000 0.111753 5.186601
v 1.000000 0.091546 1.820779
v 1.000000 6.709096 1.820779
vn -1.0000 -0.0000 -0.0000
vn -0.0000 -0.0000 -1.0000
vn 1.0000 -0.0000 -0.0000
vn -0.0000 -0.0000 1.0000
vn -0.0000 -1.0000 -0.0000
vn -0.0000 0.4545 0.8908
vt 0.347668 0.120129
vt 0.347668 0.121253
vt 0.480110 0.453866
vt 0.414680 0.149426
vt 0.375000 0.250000
vt 0.625000 0.250000
vt 0.625000 0.500000
vt 0.375000 0.500000
vt 0.375000 0.750000
vt 0.625000 0.750000
vt 0.625000 1.000000
vt 0.375000 1.000000
vt 0.125000 0.500000
vt 0.125000 0.750000
vt 0.252953 0.149656
vt 0.344727 0.118164
vt 0.481445 0.549805
vt 0.387695 0.583008
s 0
usemtl Material
f 33/118/15 34/119/15 36/120/15 35/121/15
f 35/122/16 36/123/16 40/124/16 39/125/16
f 39/121/17 40/120/17 38/119/17 37/118/17
f 37/126/18 38/127/18 34/128/18 33/129/18
f 35/130/19 39/125/19 37/126/19 33/131/19
f 40/132/20 36/133/20 34/134/20 38/135/20
