# Blender 4.0.2
# www.blender.org
mtllib lumberCamp.mtl
o Cube
v -5.291462 0.037035 5.291462
v -5.291462 0.675790 5.291462
v -5.291462 0.037035 -5.291462
v -5.291462 0.675790 -5.291462
v 5.291462 0.037035 5.291462
v 5.291462 0.675790 5.291462
v 5.291462 0.037035 -5.291462
v 5.291462 0.675790 -5.291462
v -2.030537 0.128581 5.291462
v -2.030537 0.584244 5.291462
v 2.030537 0.584244 5.291462
v 2.030537 0.128581 5.291462
v -2.030537 0.042461 7.006616
v -2.030537 0.076243 7.006616
v 2.030537 0.076243 7.006616
v 2.030537 0.042461 7.006616
v -2.030537 0.128581 6.063066
v -2.061207 0.037035 5.291462
v 2.012404 0.037035 5.291462
v -5.291462 0.675790 5.291462
v -5.291462 0.675790 -5.291462
v 5.291462 0.675790 -5.291462
v 5.291462 0.675790 5.291462
v -5.291462 3.598825 5.291462
v -5.291462 3.598825 -5.291462
v 5.291462 3.598825 -5.291462
v 5.291462 3.598825 5.291462
v -4.896249 4.407918 4.896249
v -4.896249 4.407918 -4.896249
v 4.896249 4.407918 -4.896249
v 4.896249 4.407918 4.896249
v -4.007304 4.407918 4.007304
v -4.007304 4.407918 -4.007304
v 4.007304 4.407918 -4.007304
v 4.007304 4.407918 4.007304
v -2.244913 4.541468 2.244913
v -2.244913 4.541468 -2.244913
v 2.244913 4.541468 -2.244913
v 2.244913 4.541468 2.244913
v -2.244913 6.236530 2.244913
v -2.244913 6.236530 -2.244913
v 2.244913 6.236530 -2.244913
v 2.244913 6.236530 2.244913
v -3.206118 6.142721 3.206118
v -3.206118 6.142721 -3.206118
v 3.206118 6.142721 -3.206118
v 3.206118 6.142721 3.206118
v -3.206118 6.183691 3.206118
v -3.206118 6.183691 -3.206118
v 3.206118 6.183691 -3.206118
v 3.206118 6.183691 3.206118
v -3.235559 6.565605 3.235559
v -3.235559 6.565605 -3.235559
v 3.235559 6.565605 -3.235559
v 3.235559 6.565605 3.235559
v -1.961800 6.989104 1.961800
v -1.961800 6.989104 -1.961800
v 1.961800 6.989104 -1.961800
v 1.961800 6.989104 1.961800
v -5.999039 3.544729 5.999039
v -5.999039 3.544729 -5.999039
v 5.999039 3.544729 -5.999039
v 5.999039 3.544729 5.999039
v -5.550977 4.462014 5.550977
v -5.550977 4.462014 -5.550977
v 5.550977 4.462014 -5.550977
v 5.550977 4.462014 5.550977
v 0.000000 0.037035 -5.291462
v 0.000000 0.675790 -5.291462
v 0.000000 0.675790 5.291462
v 0.000000 0.584244 5.291462
v 0.000000 0.675790 -5.291462
v 0.000000 0.675790 5.291462
v 0.000000 3.598825 -5.291462
v 0.000000 3.598825 5.291462
v 0.000000 4.407918 -4.896249
v 0.000000 4.407918 4.896249
v 0.000000 4.407918 -4.007304
v 0.000000 4.407918 4.007304
v 0.000000 4.541468 -2.244913
v 0.000000 4.541468 2.244913
v 0.000000 6.236530 -2.244913
v 0.000000 6.236530 2.244913
v 0.000000 6.142721 -3.206118
v 0.000000 6.142721 3.206118
v 0.000000 6.183691 -3.206118
v 0.000000 6.183691 3.206118
v 0.000000 6.565605 -3.235559
v 0.000000 6.565605 3.235559
v 0.000000 6.989104 -1.961800
v 0.000000 6.989104 1.961800
v 0.000000 3.544729 -5.999039
v 0.000000 3.544729 5.999039
v 0.000000 4.462014 -5.550977
v 0.000000 4.462014 5.550977
v -1.961800 7.648451 1.961800
v -1.961800 7.648451 -1.961800
v 0.000000 7.648451 -1.961800
v 1.961800 7.648451 -1.961800
v 1.961800 7.648451 1.961800
v 0.000000 7.648451 1.961800
v -1.961800 6.989104 -1.961800
v 1.961800 6.989104 -1.961800
v 0.000000 6.989104 -1.961800
v -1.961800 7.648451 -1.961800
v 0.000000 7.648451 -1.961800
v 1.961800 7.648451 -1.961800
vn -1.0000 -0.0000 -0.0000
vn -0.0000 -0.0000 -1.0000
vn 1.0000 -0.0000 -0.0000
vn -0.0000 -0.0000 1.0000
vn -0.0000 -1.0000 -0.0000
vn -0.0000 1.0000 -0.0000
vn -0.0268 0.9585 0.2839
vn 0.9809 -0.1943 -0.0098
vn 0.9481 -0.3176 -0.0159
vn 0.0823 0.9966 -0.0000
vn -0.0823 0.9966 -0.0000
vn 0.0756 0.9971 -0.0000
vn -0.0756 0.9971 -0.0000
vn -0.0000 0.9971 0.0756
vn -0.0000 0.9971 -0.0756
vn -0.0971 -0.9953 -0.0000
vn 0.0971 -0.9953 -0.0000
vn -0.0000 -0.9953 -0.0971
vn -0.0000 -0.9953 0.0971
vn -0.0000 -0.0769 0.9970
vn -0.0000 0.9489 -0.3155
vn -0.0000 -0.0769 -0.9970
vn 0.9970 -0.0769 -0.0000
vn -0.9970 -0.0769 -0.0000
vn 0.3155 0.9489 -0.0000
vn -0.3155 0.9489 -0.0000
vn -0.0000 0.9489 0.3155
vn -0.0000 0.4389 0.8985
vn -0.0000 0.4389 -0.8985
vn 0.8985 0.4389 -0.0000
vn -0.8985 0.4389 -0.0000
vn -0.0000 0.9966 -0.0823
vn -0.0000 0.9966 0.0823
vn -0.0000 -0.9971 0.0762
vt 0.652127 0.319019
vt 0.650173 0.355099
vt 0.942205 0.488888
vt 0.941229 0.451831
vt 0.648716 0.317677
vt 0.649491 0.355960
vt 0.648423 0.355960
vt 0.648423 0.317677
vt 0.509823 0.418335
vt 0.345574 0.493526
vt 0.432729 0.450611
vt 0.495072 0.421945
vt 0.576043 0.590697
vt 0.719605 0.542833
vt 0.863168 0.494968
vt 0.672009 0.319862
vt 0.556215 0.374497
vt 0.432342 0.432943
vt 0.346889 0.473262
vt 0.674072 0.343144
vt 0.648423 0.317677
vt 0.648423 0.355960
vt 0.565698 0.391783
vt 0.563373 0.356264
vt 0.565299 0.390840
vt 0.563749 0.354882
vt 0.648799 0.317509
vt 0.648024 0.355354
vt 0.433125 0.435540
vt 0.510983 0.340494
vt 0.510995 0.341700
vt 0.385252 0.405380
vt 0.385308 0.404237
vt 0.565053 0.387623
vt 0.565449 0.372551
vt 0.544411 0.360100
vt 0.567669 0.390837
vt 0.443959 0.446216
vt 0.412087 0.423088
vt 0.392088 0.402450
vt 0.517831 0.346095
vt 0.556912 0.377380
vt 0.557415 0.393278
vt 0.517632 0.341248
vt 0.564667 0.369955
vt 0.853036 0.451383
vt 0.650262 0.356807
vt 0.652711 0.507226
vt 0.856023 0.601478
vt 0.721519 0.560863
vt 0.576669 0.607633
vt 0.866370 0.514093
vt 0.917371 0.648254
vt 0.651768 0.523940
vt 0.652312 0.506010
vt 0.946509 0.644972
vt 0.499081 0.422729
vt 0.649658 0.354863
vt 0.654843 0.505619
vt 0.500457 0.571852
vt 0.579656 0.688392
vt 0.730703 0.647180
vt 0.650932 0.358846
vt 0.852143 0.454549
vt 0.852143 0.599914
vt 0.651909 0.508117
vt 0.652494 0.524821
vt 0.919596 0.649612
vt 0.879378 0.665114
vt 0.652407 0.555050
vt 0.652694 0.576636
vt 0.871483 0.682077
vt 0.770816 0.696985
vt 0.639671 0.636672
vt 0.525548 0.581216
vt 0.652232 0.525079
vt 0.650049 0.555233
vt 0.548924 0.599971
vt 0.725074 0.669388
vt 0.583049 0.706488
vt 0.589011 0.694114
vt 0.706354 0.662689
vt 0.565922 0.666919
vt 0.640565 0.635915
vt 0.640565 0.679351
vt 0.565922 0.711130
vt 0.855242 0.676874
vt 0.650689 0.574620
vt 0.554857 0.669386
vt 0.496855 0.696736
vt 0.439633 0.670651
vt 0.528150 0.633402
vt 0.561803 0.668797
vt 0.639026 0.635670
vt 0.651418 0.575891
vt 0.532290 0.631111
vt 0.650073 0.647902
vt 0.742805 0.693233
vt 0.795260 0.719687
vt 0.664674 0.656011
vt 0.565922 0.666919
vt 0.640874 0.635915
vt 0.640874 0.678576
vt 0.639204 0.635915
vt 0.770661 0.694048
vt 0.769886 0.738259
vt 0.636878 0.680127
vt 0.598264 0.763833
vt 0.450349 0.715634
vt 0.450063 0.733238
vt 0.598927 0.779151
vt 0.604871 0.727077
vt 0.503904 0.689610
vt 0.576989 0.668756
vt 0.557511 0.685823
vt 0.673838 0.710155
vt 0.696762 0.741760
vt 0.559359 0.716349
vt 0.639774 0.679144
vt 0.641132 0.696756
vt 0.559359 0.733961
vt 0.666109 0.675654
vt 0.558086 0.704446
vt 0.698142 0.757846
vt 0.797357 0.736541
vt 0.564010 0.739386
vt 0.470611 0.781242
vt 0.515398 0.796896
vt 0.578334 0.765404
vt 0.454141 0.762080
vt 0.454334 0.779691
vt 0.559359 0.733961
vt 0.640535 0.679815
vt 0.811232 0.758916
vt 0.812589 0.776528
vt 0.639178 0.697427
vt 0.639059 0.704544
vt 0.797207 0.779597
vt 0.752002 0.797897
vt 0.637509 0.736377
vt 0.564010 0.739386
vt 0.639093 0.705941
vt 0.638975 0.737213
vt 0.490203 0.558180
vt 0.652890 0.488041
vt 0.652591 0.507283
vt 0.491313 0.579417
vt 0.725074 0.669388
vt 0.653663 0.488807
vt 0.948045 0.622596
vt 0.944438 0.644158
vt 0.652387 0.506463
vt 0.520122 0.561839
vt 0.359332 0.620300
vt 0.520122 0.561839
vt 0.511922 0.600405
vt 0.644347 0.537074
vt 0.511922 0.600405
vt 0.379496 0.663736
vt 0.680911 0.503377
vt 0.881750 0.605967
vt 0.867098 0.632289
vt 0.327516 0.628320
vt 0.330036 0.651550
vt 0.470611 0.781242
vt 0.639774 0.679144
vt 0.641132 0.696756
vt 0.639093 0.705941
vt 0.454141 0.762080
vt 0.454334 0.779692
vt 0.497851 0.700466
vt 0.442912 0.671230
vt 0.637903 0.634766
vt 0.650674 0.576357
vt 0.823697 0.631264
vt 0.357007 0.656730
vt 0.419120 0.658661
vt 0.650262 0.357784
vt 0.502011 0.422729
vt 0.503387 0.571852
vt 0.647829 0.505273
vt 0.563749 0.354882
vt 0.565299 0.390839
vt 0.685734 0.844360
vt 0.633314 0.869063
vt 0.515508 0.813102
vt 0.566634 0.791246
vt 0.750148 0.814260
vt 0.637768 0.758735
vt 0.637403 0.740053
vt 0.750427 0.794741
vt 0.749652 0.812744
vt 0.636628 0.758832
vt 0.572856 0.768447
vt 0.637177 0.737687
vt 0.636562 0.759172
vt 0.572856 0.787779
vt 0.515609 0.795516
vt 0.516840 0.813617
vt 0.571610 0.768391
vt 0.638444 0.738437
vt 0.637054 0.758774
vt 0.573377 0.788090
vt 0.515584 0.793292
vt 0.515600 0.813855
s 0
usemtl Material
f 1/1/1 2/2/1 4/3/1 3/4/1
f 68/5/2 69/6/2 8/7/2 7/8/2
f 7/4/3 8/3/3 6/2/3 5/1/3
f 70/9/4 2/10/4 10/11/4 71/12/4
f 3/13/5 68/14/5 7/15/5 5/16/5 19/17/5 18/18/5 1/19/5
f 70/9/6 6/20/6 23/20/6 73/9/6
f 5/21/4 6/22/4 11/23/4 12/24/4
f 2/25/4 1/26/4 9/27/4 10/28/4
f 1/19/4 18/18/4 9/29/4
f 16/30/4 15/31/4 14/32/4 13/33/4
f 10/34/1 9/35/1 17/36/1
f 11/37/7 71/12/7 10/38/7 17/39/7 14/40/7 15/41/7
f 12/42/3 11/43/3 15/31/3 16/30/3
f 9/29/4 18/18/4 19/17/4 12/42/4
f 17/39/1 9/29/1 13/33/1 14/32/1
f 12/42/4 19/17/4 5/16/4
f 19/17/8 12/42/8 16/30/8
f 13/44/9 18/45/9 9/35/9
f 21/46/1 20/47/1 24/48/1 25/49/1
f 69/50/6 4/51/6 21/51/6 72/50/6
f 6/20/6 8/52/6 22/52/6 23/20/6
f 4/51/6 2/10/6 20/10/6 21/51/6
f 28/53/10 29/54/10 65/55/10 64/56/10
f 73/57/4 23/58/4 27/59/4 75/60/4
f 72/50/2 21/51/2 25/61/2 74/62/2
f 23/63/3 22/64/3 26/65/3 27/66/3
f 31/67/6 30/68/6 34/69/6 35/70/6
f 30/54/11 31/53/11 67/56/11 66/55/11
f 35/71/12 34/72/12 38/73/12 39/74/12
f 29/68/6 28/67/6 32/70/6 33/69/6
f 77/75/6 31/76/6 35/77/6 79/78/6
f 76/79/6 29/80/6 33/81/6 78/82/6
f 81/83/4 39/84/4 43/85/4 83/86/4
f 33/87/13 32/88/13 36/74/13 37/73/13
f 79/89/14 35/90/14 39/91/14 81/92/14
f 78/93/15 33/94/15 37/95/15 80/96/15
f 43/97/16 42/98/16 46/99/16 47/100/16
f 80/101/2 37/102/2 41/103/2 82/86/2
f 39/104/3 38/105/3 42/106/3 43/107/3
f 37/105/1 36/104/1 40/107/1 41/106/1
f 45/108/1 44/109/1 48/110/1 49/111/1
f 41/112/17 40/113/17 44/109/17 45/108/17
f 83/114/18 43/97/18 47/100/18 85/115/18
f 82/116/19 41/112/19 45/108/19 84/117/19
f 87/118/20 51/119/20 55/120/20 89/121/20
f 85/115/4 47/100/4 51/122/4 87/123/4
f 84/117/2 45/108/2 49/111/2 86/124/2
f 47/100/3 46/99/3 50/125/3 51/122/3
f 88/126/21 53/127/21 57/128/21 90/129/21
f 86/118/22 49/130/22 53/131/22 88/132/22
f 51/133/23 50/134/23 54/135/23 55/136/23
f 49/134/24 48/133/24 52/136/24 53/135/24
f 55/137/25 54/138/25 58/139/25 59/140/25
f 53/138/26 52/137/26 56/140/26 57/139/26
f 89/141/27 55/142/27 59/143/27 91/129/27
f 93/144/28 63/145/28 67/146/28 95/147/28
f 92/62/29 61/61/29 65/80/29 94/148/29
f 63/149/30 62/150/30 66/151/30 67/152/30
f 61/150/31 60/149/31 64/152/31 65/151/31
f 77/153/32 28/154/32 64/154/32 95/155/32
f 76/156/33 30/157/33 66/157/33 94/158/33
f 29/159/33 76/156/33 94/158/33 65/159/33
f 31/160/32 77/153/32 95/155/32 67/160/32
f 62/161/29 92/62/29 94/148/29 66/162/29
f 60/163/28 93/144/28 95/147/28 64/164/28
f 52/165/27 89/141/27 91/129/27 56/128/27
f 50/166/22 86/118/22 88/132/22 54/167/22
f 54/168/21 88/126/21 90/129/21 58/143/21
f 46/99/2 84/117/2 86/124/2 50/125/2
f 44/109/4 85/115/4 87/123/4 48/110/4
f 48/169/20 87/118/20 89/121/20 52/170/20
f 42/98/19 82/116/19 84/117/19 46/99/19
f 40/113/18 83/114/18 85/115/18 44/109/18
f 38/84/2 80/101/2 82/86/2 42/85/2
f 34/171/15 78/93/15 80/96/15 38/172/15
f 32/173/14 79/89/14 81/92/14 36/174/14
f 36/102/4 81/83/4 83/86/4 40/103/4
f 30/162/6 76/79/6 78/82/6 34/175/6
f 28/176/6 77/75/6 79/78/6 32/177/6
f 26/161/34 74/62/34 92/62/34 62/161/34
f 22/52/2 72/50/2 74/62/2 26/161/2
f 20/178/4 73/179/4 75/180/4 24/181/4
f 8/52/6 69/50/6 72/50/6 22/52/6
f 2/10/6 70/9/6 73/9/6 20/10/6
f 6/20/4 70/9/4 71/12/4 11/43/4
f 3/182/2 4/183/2 69/6/2 68/5/2
f 98/184/6 97/185/6 96/186/6 101/187/6
f 99/188/6 98/184/6 101/187/6 100/189/6
f 59/190/3 58/191/3 99/192/3 100/193/3
f 57/191/1 56/190/1 96/193/1 97/192/1
f 91/194/4 59/195/4 100/196/4 101/197/4
f 56/198/4 91/194/4 101/197/4 96/199/4
f 104/200/2 102/201/2 105/202/2 106/203/2
f 103/204/2 104/200/2 106/203/2 107/205/2
o Cube.001
v -1.155282 0.016257 6.934248
v -1.155282 0.130746 6.934248
v -1.155282 0.016257 13.452773
v -1.155282 0.130746 13.452773
v 1.155282 0.016257 6.934248
v 1.155282 0.130746 6.934248
v 1.155282 0.016257 13.452773
v 1.155282 0.130746 13.452773
v 1.155282 0.131319 13.452773
v 1.155282 0.131319 6.934248
v -1.155282 0.131319 6.934248
v -1.155282 0.131319 13.452773
vn 1.0000 -0.0000 -0.0000
vn -0.0000 -0.0000 -1.0000
vn -1.0000 -0.0000 -0.0000
vn -0.0000 -0.0000 1.0000
vn -0.0000 -1.0000 -0.0000
vn -0.0000 1.0000 -0.0000
vt 0.502195 0.349297
vt 0.267653 0.232009
vt 0.214314 0.257131
vt 0.433091 0.380491
s 0
usemtl Material
f 108/206/35 109/206/35 111/207/35 110/207/35
f 110/207/36 111/207/36 115/208/36 114/208/36
f 114/208/37 115/208/37 113/209/37 112/209/37
f 112/209/38 113/209/38 109/206/38 108/206/38
f 115/208/39 111/207/39 109/206/39 113/209/39
f 116/208/40 117/209/40 118/206/40 119/207/40
f 109/206/37 111/207/37 119/207/37 118/206/37
f 113/209/36 109/206/36 118/206/36 117/209/36
f 111/207/38 115/208/38 116/208/38 119/207/38
f 115/208/35 113/209/35 117/209/35 116/208/35
o Cone.003
v 6.220298 0.106952 6.967730
v 5.851979 0.110982 8.543639
v 4.236743 0.107101 8.643825
v 3.542419 0.106952 7.822262
v 3.910738 0.110982 6.246352
v 5.525975 0.107101 6.146167
v 4.881359 2.852949 7.394996
vn 0.8640 0.4549 -0.2160
vn -0.0000 1.0000 -0.0000
vn 0.5659 0.4809 0.6697
vn -0.3571 0.4549 0.8158
vn -0.8640 0.4549 0.2160
vn -0.5659 0.4809 -0.6697
vn 0.3571 0.4549 -0.8158
vt 0.304365 0.407825
vt 0.149256 0.590004
vt 0.234909 0.352715
vt 0.134475 0.330216
vt 0.034684 0.360872
vt 0.086361 0.346108
vt 0.006861 0.405236
vt 0.174593 0.341092
vt 0.177693 0.339542
s 1
usemtl Material
f 120/210/41 126/211/42 121/212/43
f 121/212/43 126/211/42 122/213/44
f 122/213/44 126/211/42 123/214/45
f 123/215/45 126/211/42 124/216/46
f 124/216/46 126/211/42 125/217/47
f 125/218/47 126/211/42 120/210/41
o Cone.001
v -5.348964 0.106952 6.369907
v -3.767817 0.110982 6.024762
v -2.982785 0.107101 7.439947
v -3.425934 0.106952 8.420084
v -5.007081 0.110982 8.765229
v -5.792113 0.107101 7.350044
v -4.387449 2.852949 7.394996
vn -0.5665 0.4549 -0.6871
vn -0.0000 1.0000 -0.0000
vn 0.3612 0.4809 -0.7989
vn 0.8901 0.4549 -0.0284
vn 0.5665 0.4549 0.6871
vn -0.3612 0.4809 0.7989
vn -0.8901 0.4549 0.0284
vt 0.304365 0.407825
vt 0.149256 0.590004
vt 0.234909 0.352715
vt 0.134475 0.330216
vt 0.034684 0.360872
vt 0.086361 0.346108
vt 0.006861 0.405236
vt 0.174593 0.341092
vt 0.177693 0.339542
s 1
usemtl Material
f 127/219/48 133/220/49 128/221/50
f 128/221/50 133/220/49 129/222/51
f 129/222/51 133/220/49 130/223/52
f 130/224/52 133/220/49 131/225/53
f 131/225/53 133/220/49 132/226/54
f 132/227/54 133/220/49 127/219/48
o Cone.002
v -5.779958 0.218577 3.974390
v -6.147798 0.222607 5.550412
v -7.763003 0.218726 5.651088
v -8.457577 0.218577 4.829737
v -8.089737 0.222607 3.253716
v -6.474532 0.218726 3.153039
v -7.118768 2.964574 4.402064
vn 0.8639 0.4549 -0.2162
vn -0.0000 1.0000 -0.0000
vn 0.5661 0.4809 0.6695
vn -0.3568 0.4549 0.8159
vn -0.8639 0.4549 0.2162
vn -0.5661 0.4809 -0.6695
vn 0.3568 0.4549 -0.8159
vt 0.304365 0.407825
vt 0.149256 0.590004
vt 0.234909 0.352715
vt 0.134475 0.330216
vt 0.034684 0.360872
vt 0.086361 0.346108
vt 0.006861 0.405236
vt 0.174593 0.341092
vt 0.177693 0.339542
s 1
usemtl Material
f 134/228/55 140/229/56 135/230/57
f 135/230/57 140/229/56 136/231/58
f 136/231/58 140/229/56 137/232/59
f 137/233/59 140/229/56 138/234/60
f 138/234/60 140/229/56 139/235/61
f 139/236/61 140/229/56 134/228/55
o Cone.004
v 4.364639 0.218577 10.728605
v 3.560118 0.222607 12.132847
v 1.983927 0.218726 11.765907
v 1.554186 0.218577 10.779818
v 2.358706 0.222607 9.375574
v 3.934898 0.218726 9.742515
v 2.959412 2.964574 10.754211
vn 0.8896 0.4549 0.0407
vn -0.0000 1.0000 -0.0000
vn 0.3503 0.4809 0.8038
vn -0.5759 0.4549 0.6793
vn -0.8896 0.4549 -0.0407
vn -0.3503 0.4809 -0.8038
vn 0.5759 0.4549 -0.6793
vt 0.304365 0.407825
vt 0.149256 0.590004
vt 0.234909 0.352715
vt 0.134475 0.330216
vt 0.034684 0.360872
vt 0.086361 0.346108
vt 0.006861 0.405236
vt 0.174593 0.341092
vt 0.177693 0.339542
s 1
usemtl Material
f 141/237/62 147/238/63 142/239/64
f 142/239/64 147/238/63 143/240/65
f 143/240/65 147/238/63 144/241/66
f 144/242/66 147/238/63 145/243/67
f 145/243/67 147/238/63 146/244/68
f 146/245/68 147/238/63 141/237/62
o Cone.005
v -1.774998 0.106952 10.879831
v -1.650143 0.110982 12.493387
v -3.159685 0.107101 13.076745
v -4.069720 0.106952 12.503260
v -4.194575 0.110982 10.889703
v -2.685033 0.107101 10.306345
v -2.922359 2.852949 11.691545
vn 0.7584 0.4549 -0.4668
vn -0.0000 1.0000 -0.0000
vn 0.7418 0.4809 0.4675
vn -0.0940 0.4549 0.8856
vn -0.7584 0.4549 0.4668
vn -0.7418 0.4809 -0.4675
vn 0.0940 0.4549 -0.8856
vt 0.304365 0.407825
vt 0.149256 0.590004
vt 0.234909 0.352715
vt 0.134475 0.330216
vt 0.034684 0.360872
vt 0.086361 0.346108
vt 0.006861 0.405236
vt 0.174593 0.341092
vt 0.177693 0.339542
s 1
usemtl Material
f 148/246/69 154/247/70 149/248/71
f 149/248/71 154/247/70 150/249/72
f 150/249/72 154/247/70 151/250/73
f 151/251/73 154/247/70 152/252/74
f 152/252/74 154/247/70 153/253/75
f 153/254/75 154/247/70 148/246/69
