# Blender 4.0.2
# www.blender.org
mtllib axe.mtl
o Cube
v -0.083116 1.580448 -0.318912
v -0.057084 -2.702883 0.117019
v 0.090972 -2.743549 0.069675
v -0.121036 -2.710014 -0.122661
v -0.142129 2.163648 0.130545
v 0.146418 2.168420 -0.616990
v 0.134567 2.473865 0.095948
v -0.140763 2.148444 -0.623329
v 0.161551 2.748827 -0.245165
v -0.000274 -2.584634 -0.219397
v 0.120647 -2.716984 -0.125891
v 0.202329 1.677397 -0.202740
v -0.210681 1.961009 -0.133372
v 0.006399 2.150610 -0.740700
v -0.182861 2.738802 -0.210410
v -0.009205 2.450714 0.191050
vn -0.6051 -0.0310 -0.7956
vn -0.2363 -0.9673 0.0918
vn 0.6189 -0.4641 -0.6337
vn -0.9909 0.0223 -0.1329
vn -0.9760 0.0558 0.2107
vn -0.8043 0.2598 0.5344
vn 0.5646 0.4347 -0.7016
vn -0.0950 0.6495 -0.7544
vn -0.9525 -0.2132 -0.2175
vn -0.5574 -0.4354 -0.7069
vn -0.9651 -0.0178 0.2613
vn -0.3972 -0.0095 0.9177
vn 0.9775 -0.0116 0.2108
vn -0.8402 -0.0174 -0.5420
vn -0.0279 -0.5937 -0.8042
vn 0.4380 -0.0126 0.8989
vn 0.4572 -0.0183 -0.8892
vn -0.0304 -0.9898 -0.1391
vn -0.5618 0.4469 -0.6962
vn 0.9927 0.0422 0.1126
vn 0.9950 0.0342 -0.0938
vn 0.2883 0.7342 0.6146
vn 0.0340 0.8189 0.5729
vn 0.4683 -0.5718 -0.6736
vt 0.481097 0.596271
vt 0.500000 -0.167663
vt 0.479526 -0.191905
vt 0.516651 0.464715
vt 0.485772 0.458966
vt 0.481438 0.501384
vt 0.500000 0.693290
vt 0.540578 0.693499
vt 0.540578 0.644723
vt 0.506047 0.659530
vt 0.510097 0.794831
vt 0.610495 0.690840
vt 0.431820 0.703038
vt 0.459422 0.703038
vt 0.500000 0.740712
vt 0.474937 0.788613
vt 0.535157 0.789315
vt 0.459422 0.781733
vt 0.542414 0.601978
vt 0.481097 0.545414
vt 0.459422 0.583448
vt 0.500000 0.583448
vt 0.500748 -0.187739
vt 0.456709 -0.191904
vt 0.487448 -0.185237
vt 0.460399 -0.192762
vt 0.503848 -0.188536
vt 0.542900 0.616239
vt 0.457634 0.752109
vt 0.517179 -0.192008
vt 0.519876 -0.192762
vt 0.540578 0.746706
vt 0.540578 0.594212
vt 0.514284 0.505349
vt 0.459422 0.690840
vt 0.515703 0.798745
vt 0.611536 0.693499
vt 0.500000 0.468531
vt 0.540578 0.473414
vt 0.531272 0.522221
vt 0.461899 0.513645
vt 0.540578 0.548118
s 0
usemtl Material
f 1/1/1 10/2/1 4/3/1
f 3/4/2 2/5/2 4/6/2
f 14/7/3 6/8/3 12/9/3
f 13/10/4 15/11/4 8/12/4
f 5/13/5 15/11/5 13/10/5
f 5/14/6 16/15/6 15/16/6
f 6/8/7 14/7/7 9/17/7
f 15/18/8 9/17/8 14/7/8
f 1/19/9 13/10/9 8/12/9
f 1/20/10 8/21/10 14/22/10
f 13/10/11 4/23/11 2/24/11 5/13/11
f 2/25/12 16/15/12 5/14/12
f 3/26/13 11/27/13 12/28/13 7/29/13
f 13/10/14 1/19/14 4/23/14
f 10/2/15 11/30/15 4/3/15
f 2/25/16 3/31/16 7/32/16 16/15/16
f 12/33/17 11/30/17 10/2/17 1/1/17
f 4/6/18 11/34/18 3/4/18
f 8/35/19 15/18/19 14/7/19
f 7/29/20 12/28/20 9/36/20
f 12/28/21 6/37/21 9/36/21
f 16/38/22 7/39/22 9/40/22
f 16/38/23 9/40/23 15/41/23
f 1/20/24 14/22/24 12/42/24
o Cube.001
v 0.017910 0.879852 1.561326
v 0.071473 1.000873 -0.618364
v 0.071671 1.637450 -0.606667
v -0.017782 1.627383 1.590158
v 0.017947 1.629331 1.584159
v -0.018834 0.880431 1.570996
v 0.015138 0.934865 1.616139
v -0.000000 1.556857 1.647790
v 0.000000 1.133520 1.674757
v 0.000000 1.362233 1.684512
v -0.072015 1.001323 -0.613953
v -0.070974 1.638130 -0.610973
vn -0.9997 0.0011 0.0243
vn -0.9576 -0.0060 0.2881
vn 0.0924 0.6439 0.7595
vn -0.5840 -0.2704 0.7654
vn 0.9997 -0.0008 0.0245
vn -0.0100 -0.9984 -0.0553
vn -0.0071 1.0000 0.0043
vn 0.9849 0.0040 0.1729
vn 0.1739 -0.6907 0.7020
vn 0.9876 0.0100 0.1564
vn -0.9915 0.0082 0.1295
vn -0.0003 0.0115 -0.9999
vt 1.151072 0.205512
vt 0.217815 0.076539
vt 0.205111 0.883166
vt 1.147985 0.894528
vt 0.181242 0.819790
vt 0.492314 0.883166
vt 0.500000 0.819790
vt 0.507727 0.885558
vt 0.506530 0.132052
vt 0.500000 0.345137
vt 0.492523 0.083814
vt 0.207413 0.885558
vt 0.217303 0.074151
vt 1.151165 0.205749
vt 1.147969 0.894567
vt 0.492279 0.219894
vt 0.468274 1.148858
vt 0.531726 1.148858
vt 0.507676 0.217303
vt 0.507779 0.210313
vt 0.531726 1.145980
vt 0.468274 1.145980
vt 0.492221 0.210313
vt 0.192113 0.132052
vt 0.507553 0.079911
vt 0.163096 0.602379
vt 0.167162 0.345137
vt 0.531196 0.205749
vt 0.468783 0.205512
vt 0.468725 0.894528
vt 0.531278 0.894567
s 0
f 27/43/25 22/44/25 20/45/25 28/46/25
f 22/44/26 24/47/26 20/45/26
f 20/48/27 24/49/27 21/50/27
f 23/51/28 25/52/28 22/53/28
f 21/54/29 17/55/29 18/56/29 19/57/29
f 22/58/30 27/59/30 18/60/30 17/61/30
f 21/62/31 19/63/31 28/64/31 20/65/31
f 24/47/32 23/66/32 17/55/32 21/54/32
f 17/67/33 23/51/33 22/53/33
f 26/68/34 25/69/34 23/66/34 24/47/34
f 26/68/35 24/47/35 22/44/35 25/69/35
f 18/70/36 27/71/36 28/72/36 19/73/36
