# Blender 4.0.2
# www.blender.org
mtllib bow.mtl
o Cube
v -0.077062 1.676065 -1.409913
v 0.039298 1.299270 -0.940940
v 0.007659 1.849860 -1.221459
v -0.006973 3.250116 -1.488895
v 0.074600 3.969961 -0.980751
v -0.010900 4.829094 0.026807
v 0.065215 3.230523 -1.261555
v -0.048138 3.283267 -1.168998
v 0.040026 1.529075 -1.439285
v 0.050273 -0.014702 0.073331
v -0.016980 -0.112747 0.008895
v -0.006469 3.738736 -0.937373
v -0.051971 3.959782 -1.043315
v -0.015641 0.120071 0.006169
v -0.016825 0.120071 -0.033588
v 0.027518 0.120071 -0.023043
v -0.008246 3.850168 -0.016069
vn -0.8924 -0.0511 0.4483
vn 0.9797 -0.0351 0.1973
vn -0.9559 -0.0589 0.2877
vn 0.3464 0.5145 -0.7844
vn 0.4367 -0.4392 0.7851
vn -0.9405 0.1098 0.3216
vn 0.9965 0.0758 0.0364
vn 0.9999 0.0147 0.0082
vn -0.7064 -0.4543 -0.5428
vn -0.7817 0.3770 0.4968
vn 0.6314 -0.0038 0.7754
vn -0.9906 0.0375 -0.1314
vn 0.9534 0.0174 -0.3012
vn -0.9914 0.0184 -0.1295
vn 0.9508 0.0993 -0.2934
vn 0.8621 -0.3517 -0.3647
vn -0.8526 0.3068 0.4230
vn -0.9805 -0.1323 0.1451
vn 0.8416 -0.2010 0.5013
vn 0.2448 0.7479 -0.6170
vn 0.9996 -0.0022 -0.0297
vn -0.2313 -0.0040 0.9729
vn -0.5605 -0.0038 -0.8281
vn -0.2847 -0.0354 -0.9580
vn 0.9156 -0.2642 0.3030
vt 0.851283 0.673372
vt 0.889441 0.380097
vt 0.852871 0.413705
vt 0.875731 0.359488
vt 0.863596 0.641502
vt 0.792973 0.777535
vt 0.812312 0.814069
vt 0.892153 0.639696
vt 0.805222 0.813703
vt 0.809151 0.321917
vt 0.637039 0.095151
vt 0.646178 0.078669
vt 0.647951 0.956422
vt 0.142880 0.081895
vt 0.148005 0.082044
vt 0.121676 0.888752
vt 0.146197 0.081991
s 0
usemtl Material
f 8/1/1 1/2/1 3/3/1
f 9/4/2 7/5/2 3/3/2
f 8/1/3 12/6/3 13/7/3
f 4/8/4 13/7/4 5/9/4
f 7/5/5 12/6/5 8/1/5
f 3/3/6 1/2/6 2/10/6
f 3/3/7 2/10/7 9/4/7
f 2/10/8 10/11/8 9/4/8
f 1/2/9 9/4/9 11/12/9
f 2/10/10 1/2/10 10/11/10
f 7/5/11 8/1/11 3/3/11
f 8/1/12 4/8/12 1/2/12
f 9/4/13 4/8/13 7/5/13
f 4/8/14 8/1/14 13/7/14
f 4/8/15 5/9/15 7/5/15
f 9/4/16 10/11/16 11/12/16
f 10/11/17 1/2/17 11/12/17
f 6/13/18 13/7/18 12/6/18
f 7/5/19 5/9/19 12/6/19
f 13/7/20 6/13/20 5/9/20
f 14/14/21 15/15/21 17/16/21
f 15/15/22 16/17/22 17/16/22
f 16/17/23 14/14/23 17/16/23
f 9/4/24 1/2/24 4/8/24
f 6/13/25 12/6/25 5/9/25
