# Blender 4.0.2
# www.blender.org
mtllib house.mtl
o House
v -2.257647 3.934204 -0.275084
v -3.940005 -0.013386 -1.973794
v 2.257647 3.934204 -0.275084
v 3.940005 -0.013386 -1.973795
v -2.257647 3.934204 0.275084
v -3.940005 -0.013386 1.973795
v 2.257647 3.934204 0.275084
v 3.940005 -0.013386 1.973794
v -3.940005 2.652046 -1.973794
v 3.940005 2.652046 1.973794
v 3.940005 2.652046 -1.973795
v -3.940005 2.652046 1.973795
v 0.000000 -0.013386 1.973795
v -0.000000 3.934204 -0.275084
v 0.000000 3.934204 0.275084
v -0.000000 -0.013386 -1.973795
v -0.000000 2.652046 -1.973795
v 0.000000 2.652046 1.973795
vn -0.0000 1.0000 -0.0000
vn 0.6062 0.7953 -0.0000
vn -0.0000 0.7982 0.6024
vn -0.0000 -1.0000 -0.0000
vn -0.0000 0.7982 -0.6024
vn -0.6062 0.7953 -0.0000
vn -1.0000 -0.0000 -0.0000
vn -0.0000 -0.0000 -1.0000
vn -0.0000 -0.0000 1.0000
vn 1.0000 -0.0000 -0.0000
vt 0.645950 0.552729
vt 0.365489 0.709002
vt 0.230053 0.627697
vt 0.518327 0.471424
vt 0.791575 0.607549
vt 0.556614 0.759586
vt 0.500066 0.722476
vt 0.507292 0.443486
vt 0.344023 0.501592
vt 0.459257 0.745426
vt 0.496396 0.727359
vt 0.513605 0.417119
vt 0.125000 0.625000
vt 0.375000 0.625000
vt 0.375000 0.750000
vt 0.125000 0.750000
vt 0.422118 0.763492
vt 0.174440 0.586064
vt 0.802278 0.590947
vt 0.529231 0.781070
vt 0.497097 0.760562
vt 0.514089 0.435674
vt 0.340414 0.351282
vt 0.345416 0.505837
vt 0.231026 0.564272
vt 0.226705 0.408225
vt 0.369087 0.335937
vt 0.371982 0.497071
vt 0.230304 0.564292
vt 0.228388 0.406086
vt 0.371909 0.338181
vt 0.370623 0.498733
vt 0.230118 0.564729
vt 0.227985 0.407106
vt 0.665189 0.355926
vt 0.671461 0.523619
vt 0.511424 0.432160
vt 0.509059 0.274232
vt 0.515832 0.269256
vt 0.511128 0.432737
vt 0.509787 0.265787
vt 0.513661 0.429851
vt 0.125000 0.500000
vt 0.375000 0.500000
vt 0.773573 0.634034
vt 0.500925 0.790307
s 0
usemtl Material
f 14/1/1 15/2/1 7/3/1 3/4/1
f 11/5/2 3/6/2 7/7/2 10/8/2
f 18/9/3 15/10/3 5/11/3 12/12/3
f 13/13/4 16/14/4 4/15/4 8/16/4
f 17/9/5 14/10/5 3/17/5 11/18/5
f 12/19/6 5/20/6 1/21/6 9/22/6
f 6/23/7 12/24/7 9/25/7 2/26/7
f 16/27/8 17/28/8 11/29/8 4/30/8
f 13/31/9 18/32/9 12/33/9 6/34/9
f 4/35/10 11/36/10 10/37/10 8/38/10
f 8/39/9 10/40/9 18/32/9 13/31/9
f 2/41/8 9/42/8 17/28/8 16/27/8
f 9/12/5 1/11/5 14/10/5 17/9/5
f 6/43/4 2/44/4 16/14/4 13/13/4
f 10/18/3 7/17/3 15/10/3 18/9/3
f 1/45/1 5/46/1 15/2/1 14/1/1
