# Blender 4.0.2
# www.blender.org
mtllib macuahuitl.mtl
o Cube
v -0.176712 1.911860 0.134007
v -0.176592 1.911861 -0.134007
v 0.268431 -3.293098 0.112853
v 0.351896 1.911449 0.134007
v 0.347122 1.910544 -0.134007
v 0.052002 -3.295806 -0.114077
v 0.269379 -3.284912 -0.112620
v 0.011050 -3.349204 0.112984
v -0.084185 -3.414458 -0.111587
v 0.406799 -3.424938 0.111630
v 0.141109 -3.750467 0.111850
v 0.395476 -3.546808 -0.111780
v 0.114273 -3.735748 -0.111850
vn 0.0021 -0.0071 1.0000
vn 0.8675 0.4168 -0.2713
vn 0.0082 -0.0304 -0.9995
vn 0.0031 -0.0018 1.0000
vn -0.0002 0.0007 -1.0000
vn 0.5537 -0.8240 -0.1206
vn 0.0020 -0.0039 -1.0000
vn 0.9998 -0.0155 -0.0080
vn 0.0005 -0.0040 1.0000
vn 0.0016 1.0000 -0.0017
vn -0.8730 -0.3975 0.2825
vn -0.9954 -0.0396 -0.0869
vn 0.6897 0.7235 0.0292
vn -0.6551 0.7532 0.0590
vn -0.0015 -0.0039 -1.0000
vn 0.7410 -0.6046 0.2922
vt 0.729838 0.607065
vt 0.735026 0.597884
vt 0.735715 0.602912
vt 0.732652 0.596093
vt 0.735782 0.602890
vt 0.731643 0.607165
vt 0.726987 0.606897
vt 0.724994 0.597716
vt 0.724413 0.597805
vt 0.845904 0.702051
vt 0.835518 0.713248
vt 0.845927 0.702072
vt 0.835519 0.713248
s 0
usemtl Material
f 8/1/1 10/2/1 3/3/1
f 10/2/2 12/4/2 7/5/2
f 6/6/3 7/5/3 9/7/3
f 8/1/4 11/8/4 10/2/4
f 9/7/5 12/4/5 13/9/5
f 11/8/6 13/9/6 12/4/6
f 5/10/7 7/5/7 6/6/7 2/11/7
f 3/3/8 7/5/8 5/10/8 4/12/8
f 8/1/9 3/3/9 4/12/9 1/13/9
f 4/12/10 5/10/10 2/11/10 1/13/10
f 11/8/11 8/1/11 9/7/11 13/9/11
f 6/6/12 8/1/12 1/13/12 2/11/12
f 3/3/13 10/2/13 7/5/13
f 8/1/14 6/6/14 9/7/14
f 9/7/15 7/5/15 12/4/15
f 10/2/16 11/8/16 12/4/16
o Cube.001
v 0.220710 1.415145 -0.021678
v 0.220710 1.852356 -0.021678
v 0.220710 1.415145 0.049484
v 0.220710 1.852356 0.049484
v 0.567670 1.415145 -0.021678
v 0.567670 1.852356 -0.021678
v 0.567670 1.415145 0.049484
v 0.567670 1.852356 0.049484
v -0.423292 1.415145 -0.021678
v -0.423292 1.852356 -0.021678
v -0.423292 1.415145 0.049484
v -0.423292 1.852356 0.049484
v -0.076332 1.415145 -0.021678
v -0.076332 1.852356 -0.021678
v -0.076332 1.415145 0.049484
v -0.076332 1.852356 0.049484
v 0.220710 0.919321 -0.021678
v 0.220710 1.356532 -0.021678
v 0.220710 0.919321 0.049484
v 0.220710 1.356532 0.049484
v 0.567670 0.919321 -0.021678
v 0.567670 1.356532 -0.021678
v 0.567670 0.919321 0.049484
v 0.567670 1.356532 0.049484
v -0.423292 0.919321 -0.021678
v -0.423292 1.356532 -0.021678
v -0.423292 0.919321 0.049484
v -0.423292 1.356532 0.049484
v -0.076332 0.919321 -0.021678
v -0.076332 1.356532 -0.021678
v -0.076332 0.919321 0.049484
v -0.076332 1.356532 0.049484
v 0.208915 0.412098 -0.021678
v 0.208915 0.849309 -0.021678
v 0.208915 0.412098 0.049484
v 0.208915 0.849309 0.049484
v 0.528321 0.412098 -0.021678
v 0.528321 0.849309 -0.021678
v 0.528321 0.412098 0.049484
v 0.528321 0.849309 0.049484
v -0.383943 0.412098 -0.021678
v -0.383943 0.849309 -0.021678
v -0.383943 0.412098 0.049484
v -0.383943 0.849309 0.049484
v -0.064537 0.412098 -0.021678
v -0.064537 0.849309 -0.021678
v -0.064537 0.412098 0.049484
v -0.064537 0.849309 0.049484
v 0.252038 -0.112222 -0.021678
v 0.252038 0.324989 -0.021678
v 0.252038 -0.112222 0.049484
v 0.252038 0.324989 0.049484
v 0.531322 -0.112222 -0.021678
v 0.531322 0.324989 -0.021678
v 0.531322 -0.112222 0.049484
v 0.531322 0.324989 0.049484
v -0.326646 -0.112222 -0.021678
v -0.326646 0.324989 -0.021678
v -0.326646 -0.112222 0.049484
v -0.326646 0.324989 0.049484
v -0.047362 -0.112222 -0.021678
v -0.047362 0.324989 -0.021678
v -0.047362 -0.112222 0.049484
v -0.047362 0.324989 0.049484
v 0.232678 -0.636541 -0.021678
v 0.232678 -0.199330 -0.021678
v 0.232678 -0.636541 0.049484
v 0.232678 -0.199330 0.049484
v 0.480204 -0.636541 -0.021678
v 0.480204 -0.199330 -0.021678
v 0.480204 -0.636541 0.049484
v 0.480204 -0.199330 0.049484
v -0.281295 -0.636541 -0.021678
v -0.281295 -0.199330 -0.021678
v -0.281295 -0.636541 0.049484
v -0.281295 -0.199330 0.049484
v -0.033768 -0.636541 -0.021678
v -0.033768 -0.199330 -0.021678
v -0.033768 -0.636541 0.049484
v -0.033768 -0.199330 0.049484
vn -1.0000 -0.0000 -0.0000
vn -0.0000 -0.0000 1.0000
vn 1.0000 -0.0000 -0.0000
vn -0.0000 -0.0000 -1.0000
vn -0.0000 -1.0000 -0.0000
vn -0.0000 1.0000 -0.0000
vt 0.195211 0.273994
vt 0.185965 0.273994
vt 0.185965 0.264749
vt 0.195211 0.264749
vt 0.185965 0.255503
vt 0.195211 0.255503
vt 0.185965 0.246257
vt 0.195211 0.246257
vt 0.185965 0.237011
vt 0.195211 0.237011
vt 0.204457 0.255503
vt 0.204457 0.246257
vt 0.176719 0.255503
vt 0.176719 0.246257
s 0
usemtl Material
f 14/14/17 16/17/17 17/16/17 15/15/17
f 16/17/18 20/19/18 21/18/18 17/16/18
f 20/19/19 18/21/19 19/20/19 21/18/19
f 18/21/20 14/23/20 15/22/20 19/20/20
f 16/24/21 14/25/21 18/21/21 20/19/21
f 21/18/22 19/20/22 15/27/22 17/26/22
f 22/14/17 24/17/17 25/16/17 23/15/17
f 24/17/18 28/19/18 29/18/18 25/16/18
f 28/19/19 26/21/19 27/20/19 29/18/19
f 26/21/20 22/23/20 23/22/20 27/20/20
f 24/24/21 22/25/21 26/21/21 28/19/21
f 29/18/22 27/20/22 23/27/22 25/26/22
f 30/14/17 32/17/17 33/16/17 31/15/17
f 32/17/18 36/19/18 37/18/18 33/16/18
f 36/19/19 34/21/19 35/20/19 37/18/19
f 34/21/20 30/23/20 31/22/20 35/20/20
f 32/24/21 30/25/21 34/21/21 36/19/21
f 37/18/22 35/20/22 31/27/22 33/26/22
f 38/14/17 40/17/17 41/16/17 39/15/17
f 40/17/18 44/19/18 45/18/18 41/16/18
f 44/19/19 42/21/19 43/20/19 45/18/19
f 42/21/20 38/23/20 39/22/20 43/20/20
f 40/24/21 38/25/21 42/21/21 44/19/21
f 45/18/22 43/20/22 39/27/22 41/26/22
f 46/14/17 48/17/17 49/16/17 47/15/17
f 48/17/18 52/19/18 53/18/18 49/16/18
f 52/19/19 50/21/19 51/20/19 53/18/19
f 50/21/20 46/23/20 47/22/20 51/20/20
f 48/24/21 46/25/21 50/21/21 52/19/21
f 53/18/22 51/20/22 47/27/22 49/26/22
f 54/14/17 56/17/17 57/16/17 55/15/17
f 56/17/18 60/19/18 61/18/18 57/16/18
f 60/19/19 58/21/19 59/20/19 61/18/19
f 58/21/20 54/23/20 55/22/20 59/20/20
f 56/24/21 54/25/21 58/21/21 60/19/21
f 61/18/22 59/20/22 55/27/22 57/26/22
f 62/14/17 64/17/17 65/16/17 63/15/17
f 64/17/18 68/19/18 69/18/18 65/16/18
f 68/19/19 66/21/19 67/20/19 69/18/19
f 66/21/20 62/23/20 63/22/20 67/20/20
f 64/24/21 62/25/21 66/21/21 68/19/21
f 69/18/22 67/20/22 63/27/22 65/26/22
f 70/14/17 72/17/17 73/16/17 71/15/17
f 72/17/18 76/19/18 77/18/18 73/16/18
f 76/19/19 74/21/19 75/20/19 77/18/19
f 74/21/20 70/23/20 71/22/20 75/20/20
f 72/24/21 70/25/21 74/21/21 76/19/21
f 77/18/22 75/20/22 71/27/22 73/26/22
f 78/14/17 80/17/17 81/16/17 79/15/17
f 80/17/18 84/19/18 85/18/18 81/16/18
f 84/19/19 82/21/19 83/20/19 85/18/19
f 82/21/20 78/23/20 79/22/20 83/20/20
f 80/24/21 78/25/21 82/21/21 84/19/21
f 85/18/22 83/20/22 79/27/22 81/26/22
f 86/14/17 88/17/17 89/16/17 87/15/17
f 88/17/18 92/19/18 93/18/18 89/16/18
f 92/19/19 90/21/19 91/20/19 93/18/19
f 90/21/20 86/23/20 87/22/20 91/20/20
f 88/24/21 86/25/21 90/21/21 92/19/21
f 93/18/22 91/20/22 87/27/22 89/26/22
